<?xml version="1.0" standalone="no"?>
<!DOCTYPE svg PUBLIC "-//W3C//DTD SVG 1.1//EN" "http://www.w3.org/Graphics/SVG/1.1/DTD/svg11.dtd" >
<svg xmlns="http://www.w3.org/2000/svg" xmlns:xlink="http://www.w3.org/1999/xlink" version="1.1">
<metadata>
Created by FontForge 20170731 at Wed Jan  8 18:58:05 2020
 By Aleksey,,,
Copyright (c) 2019 by Violaine &#38; Je're'my. All rights reserved.
</metadata>
<defs>
<font id="welcome-font-regular" horiz-adv-x="608" >
  <font-face 
    font-family="Welcome web"
    font-weight="400"
    font-stretch="normal"
    units-per-em="1000"
    panose-1="2 0 0 0 0 0 0 0 0 0"
    ascent="800"
    descent="-200"
    x-height="500"
    cap-height="755"
    bbox="-502 -301 1334 995"
    underline-thickness="50"
    underline-position="-150"
    unicode-range="U+0020-2260"
  />
<missing-glyph horiz-adv-x="600" 
d="M497 0h-406v500h406v-500zM127 80l323 386h-323v-386zM461 419l-321 -384h321v384z" />
    <glyph glyph-name=".notdef" horiz-adv-x="600" 
d="M497 0h-406v500h406v-500zM127 80l323 386h-323v-386zM461 419l-321 -384h321v384z" />
    <glyph glyph-name=".null" horiz-adv-x="0" 
 />
    <glyph glyph-name="nonmarkingreturn" horiz-adv-x="333" 
 />
    <glyph glyph-name="space" unicode=" " horiz-adv-x="300" 
 />
    <glyph glyph-name="exclam" unicode="!" horiz-adv-x="246" 
d="M162 755v-525h-79v525h79zM73 11.5q-21 20.5 -21 50.5q0 29 21 49.5t50 20.5t50 -20.5t21 -49.5q0 -30 -21 -50.5t-50 -20.5t-50 20.5z" />
    <glyph glyph-name="quotedbl" unicode="&#x22;" horiz-adv-x="349" 
d="M139 725v-289h-79v289h79zM299 725v-289h-79v289h79z" />
    <glyph glyph-name="numbersign" unicode="#" horiz-adv-x="643" 
d="M414 273h138v-65h-156l-63 -220l-68 14l59 206h-133l-63 -220l-68 14l59 206h-74v65h92l58 203h-103v64h121l57 201l68 -15l-53 -186h133l57 201l68 -15l-53 -186h108v-64h-126zM267 476l-58 -203h133l58 203h-133z" />
    <glyph glyph-name="dollar" unicode="$" horiz-adv-x="601" 
d="M126 81q-52 61 -51 140h78q1 -43 21.5 -78t54.5 -55t75 -20q38 0 71 17t52.5 47.5t19.5 69.5q0 43 -17 67.5t-46.5 39t-85.5 31.5q-65 21 -106.5 44t-66 62t-24.5 100q0 45 22 84t59 64.5t80 33.5v92h79v-92q46 -8 83.5 -37.5t59 -73t20.5 -91.5h-79q-2 58 -35.5 95
t-85.5 37q-31 0 -59.5 -15t-46 -40.5t-17.5 -56.5q0 -37 18 -60.5t46 -37t76 -28.5q76 -22 120.5 -48t65 -63.5t20.5 -93.5q0 -83 -51 -143t-135 -73v-91h-79v92q-84 20 -136 81z" />
    <glyph glyph-name="percent" unicode="%" horiz-adv-x="963" 
d="M324 716q42 -25 66.5 -68t24.5 -94t-24.5 -94t-66.5 -68.5t-92 -25.5q-49 0 -91 25.5t-66.5 68.5t-24.5 94t24.5 94t66.5 68t91 25q50 0 92 -25zM265 17l357 722l72 -29l-357 -722zM305 475q30 33 30 79q0 45 -30 78t-73 33q-42 0 -72 -33t-30 -78q0 -46 30 -79t72 -33
q43 0 73 33zM822 338q42 -25 66.5 -68t24.5 -94t-24.5 -94t-66.5 -68.5t-92 -25.5q-49 0 -91 25.5t-66.5 68.5t-24.5 94t24.5 94t66.5 68t91 25q50 0 92 -25zM803 97q30 33 30 79q0 45 -30 78t-73 33q-42 0 -72 -33t-30 -78q0 -46 30 -79t72 -33q43 0 73 33z" />
    <glyph glyph-name="ampersand" unicode="&#x26;" horiz-adv-x="649" 
d="M175.5 17q-53.5 31 -84.5 84.5t-31 115.5q0 60 28 111t76 83q-34 28 -54.5 69t-20.5 87q0 56 27 102.5t73.5 73.5t101.5 27t101.5 -27t74 -73.5t27.5 -102.5h-81q0 52 -35.5 88.5t-86.5 36.5q-33 0 -60.5 -16.5t-44 -45.5t-16.5 -63q0 -53 34 -88t92 -35h303v-73h-125
q-5 0 -8 -2.5t-3 -6.5t5 -9q28 -28 41.5 -60t13.5 -76q0 -63 -31 -116t-84.5 -84t-116.5 -31q-62 0 -115.5 31zM367.5 87q34.5 20 54.5 54.5t20 75.5q0 67 -42 109t-109 43q-41 0 -75.5 -20t-54.5 -55t-20 -77q0 -41 20 -75.5t54.5 -54.5t75.5 -20q42 0 76.5 20z" />
    <glyph glyph-name="quotesingle" unicode="'" horiz-adv-x="221" 
d="M94 765l82 -18l-72 -246l-58 9z" />
    <glyph glyph-name="parenleft" unicode="(" horiz-adv-x="324" 
d="M97.5 43q-47.5 120 -47.5 251q0 116 37.5 225t108.5 199l65 -37q-65 -84 -98.5 -185t-33.5 -210q0 -117 43 -224.5t122 -190.5l-59 -42q-90 94 -137.5 214z" />
    <glyph glyph-name="parenright" unicode=")" horiz-adv-x="324" 
d="M152 61.5q43 107.5 43 224.5q0 109 -33.5 210t-98.5 185l65 37q71 -90 108.5 -199t37.5 -225q0 -131 -47.5 -251t-137.5 -214l-59 42q79 83 122 190.5z" />
    <glyph glyph-name="asterisk" unicode="*" horiz-adv-x="431" 
d="M273 567l59 -102l-58 -33l-58 102l-59 -102l-58 33l59 102h-118v67h118l-59 102l58 33l59 -102l58 102l58 -33l-59 -102h118v-67h-118z" />
    <glyph glyph-name="plus" unicode="+" horiz-adv-x="554" 
d="M61 281v79h163v155h82v-155h164v-79h-164v-157h-82v157h-163z" />
    <glyph glyph-name="comma" unicode="," horiz-adv-x="245" 
d="M114 110l96 -38l-120 -230l-66 25z" />
    <glyph glyph-name="hyphen" unicode="-" horiz-adv-x="437" 
d="M367 310v-73h-297v73h297z" />
    <glyph glyph-name="period" unicode="." horiz-adv-x="246" 
d="M73 11.5q-21 20.5 -21 50.5q0 29 21 49.5t50 20.5t50 -20.5t21 -49.5q0 -30 -21 -50.5t-50 -20.5t-50 20.5z" />
    <glyph glyph-name="slash" unicode="/" horiz-adv-x="357" 
d="M21 -50l235 827l76 -16l-235 -827z" />
    <glyph glyph-name="zero" unicode="0" horiz-adv-x="822" 
d="M583 689.5q77 -50.5 120.5 -136.5t43.5 -189t-43.5 -189t-120.5 -136.5t-172 -50.5t-172 50.5t-120.5 136.5t-43.5 189t43.5 189t120.5 136.5t172 50.5t172 -50.5zM540 106q57 40 89.5 108.5t32.5 149.5q0 82 -32.5 150.5t-89.5 108.5t-129 40t-129 -40t-89 -108.5
t-32 -150.5q0 -81 32 -149.5t89 -108.5t129 -40t129 40z" />
    <glyph glyph-name="one" unicode="1" horiz-adv-x="310" 
d="M10 646v79h223v-725h-82v646h-141z" />
    <glyph glyph-name="two" unicode="2" horiz-adv-x="514" 
d="M231 278q123 143 138 164q27 38 27 88q0 55 -36.5 92.5t-93.5 37.5q-58 0 -94.5 -37.5t-36.5 -92.5v-39h-78v39q0 57 27 104.5t75 75.5t107 28t106.5 -28t74.5 -75.5t27 -104.5q0 -61 -41 -124q-17 -28 -117.5 -144t-136.5 -157q-9 -9 -9 -16q0 -5 4.5 -8t12.5 -3h286
v-78h-418v78q53 57 176 200z" />
    <glyph glyph-name="three" unicode="3" horiz-adv-x="532" 
d="M150 17.5q-51 29.5 -80.5 80.5t-29.5 111h80q0 -38 19 -70.5t51.5 -51.5t70.5 -19t70.5 19t51.5 51.5t19 70.5t-19 70.5t-51.5 51.5t-70.5 19h-82v80h82q47 0 80.5 33.5t33.5 80.5t-33.5 80.5t-80.5 33.5t-80.5 -33.5t-33.5 -80.5h-80q0 53 26 97t70.5 70t97.5 26t97 -26
t70 -70t26 -97q0 -45 -19 -84t-53 -67q46 -30 73 -78.5t27 -105.5q0 -60 -29.5 -111t-80.5 -80.5t-111 -29.5t-111 29.5z" />
    <glyph glyph-name="four" unicode="4" horiz-adv-x="541" 
d="M50 161l141 564h79l-117 -471q-1 -2 -1 -6q0 -8 11 -8h149v240h79v-240h100v-79h-100v-161h-79v161h-262z" />
    <glyph glyph-name="five" unicode="5" 
d="M434 452.5q57 -33.5 90.5 -91t33.5 -124.5q0 -68 -33.5 -125t-90.5 -90.5t-125 -33.5t-125 33.5t-90.5 90.5t-33.5 125h80q0 -46 23 -85t61.5 -61.5t84.5 -22.5t84.5 22.5t61.5 61.5t23 85t-23 84.5t-61.5 61.5t-84.5 23q-38 0 -70.5 -13t-53.5 -37h-97l82 369h319v-80
h-255l-41 -164q-1 -2 -1 -6q0 -9 9 -9q3 0 35 10t73 10q68 0 125 -33.5z" />
    <glyph glyph-name="six" unicode="6" 
d="M184 21.5q-57 33.5 -90.5 90.5t-33.5 125q0 38 10 70.5t32 67.5l222 350h91l-142 -224q-2 -2 -2 -7q0 -9 13 -9q81 2 143 -29t96.5 -88t34.5 -131q0 -68 -33.5 -125t-90.5 -90.5t-125 -33.5t-125 33.5zM393.5 90.5q38.5 22.5 61.5 61.5t23 85t-23 84.5t-61.5 61.5
t-84.5 23t-84.5 -23t-61.5 -61.5t-23 -84.5t23 -85t61.5 -61.5t84.5 -22.5t84.5 22.5z" />
    <glyph glyph-name="seven" unicode="7" horiz-adv-x="494" 
d="M377 637q0 9 -12 9h-335v79h444v-79l-312 -646h-91l304 630q2 6 2 7z" />
    <glyph glyph-name="eight" unicode="8" horiz-adv-x="621" 
d="M185 21.5q-58 33.5 -91.5 91.5t-33.5 126q0 70 36 129t96 92q-22 22 -34 51.5t-12 61.5q0 45 22 82.5t60 59.5t83 22q44 0 82 -22t60 -59.5t22 -82.5q0 -33 -12 -62t-34 -51q60 -33 96 -92t36 -129q0 -68 -33.5 -126t-91 -91.5t-125.5 -33.5t-126 33.5zM370 514.5
q24 24.5 24 58.5q0 35 -24.5 59.5t-58.5 24.5t-59 -24.5t-25 -59.5q0 -34 24.5 -58.5t59.5 -24.5t59 24.5zM396 91q39 23 62 62.5t23 85.5t-22.5 85t-61.5 62t-86 23q-48 0 -87 -23t-61.5 -62t-22.5 -85t23 -85.5t62 -62.5t86 -23q46 0 85 23z" />
    <glyph glyph-name="nine" unicode="9" 
d="M337 231q0 9 -13 9q-81 0 -143.5 31t-96.5 87t-34 130q0 68 33.5 125t90.5 90.5t125 33.5t125 -33.5t90.5 -90.5t33.5 -125q0 -38 -10 -70.5t-32 -67.5l-222 -350h-91l142 224q2 2 2 7zM383.5 342q38.5 23 61.5 61.5t23 84.5t-23 85t-61.5 61.5t-84.5 22.5t-84.5 -22.5
t-61.5 -61.5t-23 -85t23 -84.5t61.5 -61.5t84.5 -23t84.5 23z" />
    <glyph glyph-name="colon" unicode=":" horiz-adv-x="262" 
d="M81 361.5q-21 20.5 -21 50.5q0 29 21 49.5t50 20.5t50 -20.5t21 -49.5q0 -30 -21 -50.5t-50 -20.5t-50 20.5zM81 11.5q-21 20.5 -21 50.5q0 29 21 49.5t50 20.5t50 -20.5t21 -49.5q0 -30 -21 -50.5t-50 -20.5t-50 20.5z" />
    <glyph glyph-name="semicolon" unicode=";" horiz-adv-x="256" 
d="M84 361.5q-21 20.5 -21 50.5q0 29 21 49.5t50 20.5t50 -20.5t21 -49.5q0 -30 -21 -50.5t-50 -20.5t-50 20.5zM125 110l96 -38l-120 -230l-66 25z" />
    <glyph glyph-name="less" unicode="&#x3c;" horiz-adv-x="594" 
d="M175 297l327 -158l-42 -76l-382 188v91l389 193l35 -80z" />
    <glyph glyph-name="equal" unicode="=" horiz-adv-x="614" 
d="M506 447v-80h-401v80h401zM506 261v-82h-401v82h401z" />
    <glyph glyph-name="greater" unicode="&#x3e;" horiz-adv-x="594" 
d="M502 251l-382 -188l-42 76l327 158l-327 158l35 80l389 -193v-91z" />
    <glyph glyph-name="question" unicode="?" horiz-adv-x="485" 
d="M316 470q17 28 27 57.5t10 52.5q0 46 -32 79t-79 33t-80 -33.5t-33 -80.5v-54h-79v54q0 53 26 97t70 69.5t96 25.5q50 0 94.5 -24t71 -65.5t26.5 -91.5q0 -36 -14.5 -71.5t-41.5 -84.5q-42 -80 -122 -203h-88q65 96 148 240zM173 11.5q-21 20.5 -21 50.5q0 29 21 49.5
t50 20.5t50 -20.5t21 -49.5q0 -30 -21 -50.5t-50 -20.5t-50 20.5z" />
    <glyph glyph-name="at" unicode="@" horiz-adv-x="976" 
d="M267.5 -49q-100.5 59 -159 159.5t-58.5 219.5t59 219.5t159.5 159.5t219.5 59q120 0 220.5 -59t159 -159.5t58.5 -219.5q0 -71 -25.5 -136t-71.5 -105t-103 -40q-51 0 -81 22t-41 77q-2 12 -9 12q-4 0 -17 -11q-26 -20 -55.5 -34t-70.5 -14q-48 0 -88.5 22t-64.5 59.5
t-24 80.5q0 39 22.5 76t60.5 58q-17 32 -17 60q0 51 44.5 84.5t114.5 33.5q77 0 125.5 -39.5t48.5 -130.5v-218q0 -37 17.5 -51.5t41.5 -14.5q36 0 63 31.5t41.5 80t14.5 97.5q0 100 -49.5 184t-133 133t-181.5 49t-180.5 -49t-131 -133t-48.5 -184t48.5 -184t131 -133.5
t180.5 -49.5q55 0 122 19l24 -67q-70 -23 -148 -23q-118 0 -218.5 59zM569 487.5q-30 24.5 -73 24.5q-41 0 -61.5 -17.5t-20.5 -41.5q0 -18 11 -32h174q0 42 -30 66.5zM563 198.5q36 26.5 36 64.5v87h-139q-51 0 -80.5 -25t-29.5 -62q0 -38 36.5 -64.5t89.5 -26.5
q51 0 87 26.5z" />
    <glyph glyph-name="A" unicode="A" horiz-adv-x="689" 
d="M389 755l245 -755h-86l-53 162h-301l-53 -162h-86l245 755h89zM354 622q-3 9 -10 9t-10 -9l-114 -379h249z" />
    <glyph glyph-name="B" unicode="B" horiz-adv-x="677" 
d="M375 755q41 0 76 -20t55.5 -55t20.5 -76q0 -42 -18 -72.5t-65 -58.5q81 -20 129.5 -83.5t48.5 -145.5q0 -66 -33 -122t-89 -89t-122 -33h-278v755h275zM218 424q114 62 169 97q33 22 45 41t12 42q0 29 -20 49.5t-49 20.5h-180q-5 0 -9 -4t-4 -9v-256zM459.5 104
q37.5 22 59.5 59t22 81q0 45 -22 82.5t-59.5 59t-81.5 21.5q-38 0 -87 -24.5t-109 -64.5v-223q0 -5 4 -9t9 -4h183q44 0 81.5 22z" />
    <glyph glyph-name="C" unicode="C" horiz-adv-x="863" 
d="M253.5 43.5q-83.5 51.5 -131 140t-47.5 194.5q0 104 49.5 192.5t133.5 140t183 51.5q80 0 151 -34.5t122 -95.5t74 -139h-91q-31 84 -101 136t-155 52q-75 0 -138.5 -41t-100.5 -110.5t-37 -151.5q0 -84 36 -153.5t99 -110.5t141 -41q85 0 155 52t101 136h91
q-23 -78 -74 -139t-122 -95.5t-151 -34.5q-104 0 -187.5 51.5z" />
    <glyph glyph-name="D" unicode="D" horiz-adv-x="729" 
d="M274 755q111 0 197.5 -50t134 -136.5t47.5 -191.5q0 -104 -47.5 -190t-134 -136.5t-197.5 -50.5h-174v755h174zM429 119.5q67 39.5 103 107.5t36 150q0 83 -36 151t-103 107.5t-155 39.5h-79q-5 0 -9 -4t-4 -9v-569q0 -5 4 -9t9 -4h79q88 0 155 39.5z" />
    <glyph glyph-name="E" unicode="E" horiz-adv-x="620" 
d="M482 755v-78h-287q-5 0 -9 -4t-4 -9v-184h300v-78h-300v-309q0 -5 4 -9t9 -4h385v-80h-480v755h382z" />
    <glyph glyph-name="F" unicode="F" horiz-adv-x="531" 
d="M481 755v-78h-286q-5 0 -9 -4t-4 -9v-184h299v-78h-299v-402h-82v755h381z" />
    <glyph glyph-name="G" unicode="G" horiz-adv-x="915" 
d="M268 44.5q-89 51.5 -141 140t-52 193.5q0 104 52 192.5t141 140.5t194 52q84 0 159 -34.5t129.5 -96t78.5 -139.5h-86q-35 84 -111 136t-170 52q-82 0 -151.5 -41t-110 -110.5t-40.5 -151.5t40.5 -151.5t110 -110.5t151.5 -41q81 0 145.5 32.5t101.5 92.5t37 140h82v-340
h-82v133q-53 -69 -126 -104.5t-158 -35.5q-105 0 -194 51.5z" />
    <glyph glyph-name="H" unicode="H" horiz-adv-x="724" 
d="M182 755v-339h360v339h82v-755h-82v338h-360v-338h-82v755h82z" />
    <glyph glyph-name="I" unicode="I" horiz-adv-x="282" 
d="M182 755v-755h-82v755h82z" />
    <glyph glyph-name="J" unicode="J" horiz-adv-x="607" 
d="M143 24.5q-57 33.5 -90 91t-33 124.5h80q0 -46 22.5 -84t61.5 -60.5t84 -22.5t83.5 22.5t61 61t22.5 85.5v424q0 4 -4 7.5t-9 3.5h-223v78h318v-513q0 -68 -34 -126t-91 -91.5t-124 -33.5q-68 0 -125 33.5z" />
    <glyph glyph-name="K" unicode="K" horiz-adv-x="699" 
d="M182 755v-341l317 341h105l-258 -278q22 2 32 2q71 0 126 -35t85 -93t30 -125v-226h-80v226q0 49 -24 90t-65 65t-89 24q-49 0 -89.5 -24t-65 -65t-24.5 -89v-227h-82v755h82z" />
    <glyph glyph-name="L" unicode="L" horiz-adv-x="635" 
d="M186 84q4 -4 9 -4h385v-80h-480v755h82v-662q0 -5 4 -9z" />
    <glyph glyph-name="M" unicode="M" horiz-adv-x="908" 
d="M182 755l272 -522l272 522h82v-755h-82v569q0 5 -3 5.5t-5 -3.5l-219 -423l77 -148h-90l-296 571q-2 4 -5 4t-3 -5v-570h-82v755h82z" />
    <glyph glyph-name="N" unicode="N" horiz-adv-x="745" 
d="M182 755l375 -599q2 -4 5 -3t3 5v597h80v-755h-82l-375 599q-2 4 -5 3t-3 -5v-597h-80v755h82z" />
    <glyph glyph-name="O" unicode="O" horiz-adv-x="932" 
d="M661.5 717q89.5 -53 142.5 -142.5t53 -195.5t-53 -195.5t-142.5 -142.5t-195.5 -53t-195.5 53t-142.5 142.5t-53 195.5t53 195.5t142.5 142.5t195.5 53t195.5 -53zM617 111q69 42 110 113t41 155t-41 155t-110 113t-151 42t-151.5 -42t-110 -113t-40.5 -155t40.5 -155
t110 -113t151.5 -42t151 42z" />
    <glyph glyph-name="P" unicode="P" 
d="M380 755q51 0 94 -25.5t68.5 -68.5t25.5 -94q0 -50 -25.5 -92t-72.5 -73q-109 -74 -288 -163v-239h-82v755h280zM213 346q79 40 127 66.5t90 56.5q57 41 57 98q0 44 -31.5 75.5t-75.5 31.5h-186q-5 0 -8.5 -3.5t-3.5 -7.5v-332z" />
    <glyph glyph-name="Q" unicode="Q" horiz-adv-x="925" 
d="M267.5 44q-88.5 52 -140.5 140.5t-52 192.5t52 192.5t140.5 140.5t192.5 52t192.5 -52t140.5 -140.5t52 -192.5q0 -90 -39.5 -169.5t-108.5 -133.5h148v-82h-385q-104 0 -192.5 52zM612 114q70 41 111 111t41 152t-41 152t-111 111t-152 41q-83 0 -152.5 -41t-110.5 -111
t-41 -152t41 -152t110.5 -111t152.5 -41q82 0 152 41z" />
    <glyph glyph-name="R" unicode="R" horiz-adv-x="625" 
d="M352 755q103 0 156 -52.5t53 -134.5q0 -53 -22.5 -92t-74.5 -74q-22 -15 -64 -39l-18 -11l181 -352h-91l-160 310q-46 -25 -112 -54q-10 -5 -18.5 -9t-14.5 -7v-240h-82v755h267zM410 458q39 27 54 53t15 60q0 46 -30.5 77t-85.5 31h-186q-4 0 -7 -3t-3 -8v-337
q130 51 243 127z" />
    <glyph glyph-name="S" unicode="S" horiz-adv-x="719" 
d="M156.5 61q-76.5 70 -79.5 194h88q3 -95 58 -141.5t143 -46.5q87 0 141 33t54 96q0 41 -19 64.5t-63 41.5t-141 47q-89 28 -138 53.5t-74 65t-25 104.5q3 57 36 102t90 70.5t129 25.5q122 0 198 -65t80 -181h-89q0 79 -49.5 125t-133.5 46q-75 0 -125.5 -33.5
t-50.5 -100.5q0 -34 21.5 -57t67.5 -43t135 -50q90 -28 138.5 -52.5t72 -61.5t23.5 -96q0 -68 -37 -115.5t-100 -71t-141 -23.5q-133 0 -209.5 70z" />
    <glyph glyph-name="T" unicode="T" horiz-adv-x="589" 
d="M249 673q4 -4 4 -9v-664h83v664q0 5 4 9t9 4h225v78h-559v-78h225q5 0 9 -4z" />
    <glyph glyph-name="U" unicode="U" horiz-adv-x="733" 
d="M643 755v-478q0 -86 -36 -150.5t-99 -99.5t-141 -35q-79 0 -142 35t-99 99.5t-36 150.5v478h82v-478q0 -96 54.5 -150t140.5 -54t140 54t54 150v478h82z" />
    <glyph glyph-name="V" unicode="V" horiz-adv-x="656" 
d="M97 755l221 -612q3 -9 10 -9t10 9l221 612h87l-278 -755h-82l-276 755h87z" />
    <glyph glyph-name="W" unicode="W" horiz-adv-x="1023" 
d="M97 755l203 -617q3 -8 8 -8t8 8l155 468l-50 149h82l203 -617q3 -9 8 -9t8 9l204 617h87l-258 -755h-78l-164 484l-164 -484h-81l-258 755h87z" />
    <glyph glyph-name="X" unicode="X" horiz-adv-x="652" 
d="M40 755h94l184 -290q3 -5 8 -5q4 0 7 5l185 290h94l-239 -378l239 -377h-94l-185 292q-2 4 -7 4t-7 -4l-185 -292h-94l239 377z" />
    <glyph glyph-name="Y" unicode="Y" horiz-adv-x="614" 
d="M10 755h89l196 -480q3 -5 7 -5t6 5l207 480h89l-328 -755h-90l71 162z" />
    <glyph glyph-name="Z" unicode="Z" horiz-adv-x="658" 
d="M489 658q2 2 2 7q0 8 -8 8h-419v82h539v-82l-434 -576q-2 -2 -2 -7q0 -8 8 -8h428v-82h-548v82z" />
    <glyph glyph-name="bracketleft" unicode="[" horiz-adv-x="333" 
d="M177 681v-791h129v-62h-206v913h206v-60h-129z" />
    <glyph glyph-name="backslash" unicode="\" horiz-adv-x="357" 
d="M332 -50l-76 -16l-235 827l76 16z" />
    <glyph glyph-name="bracketright" unicode="]" horiz-adv-x="333" 
d="M156 -110v790h-129v61h206v-913h-206v62h129z" />
    <glyph glyph-name="asciicircum" unicode="^" horiz-adv-x="597" 
d="M298 605l-158 -327l-75 42l187 382h91l193 -389l-80 -35z" />
    <glyph glyph-name="underscore" unicode="_" horiz-adv-x="547" 
d="M477 73v-73h-407v73h407z" />
    <glyph glyph-name="a" unicode="a" horiz-adv-x="577" 
d="M151.5 10.5q-44.5 22.5 -70.5 63.5t-26 94q0 45 25.5 84.5t74.5 62.5q-23 35 -23 67q0 36 22.5 65t61.5 45.5t87 16.5q81 0 135 -44.5t54 -138.5v-326h-75v41v4q0 16 -9 14q-3 -1 -24 -20.5t-54 -35t-80 -15.5q-54 0 -98.5 22.5zM252 337h165q-1 49 -35 75t-82 26
q-45 0 -67.5 -19.5t-22.5 -47.5q0 -20 11 -36q9 2 31 2zM344.5 78q32.5 14 52.5 37.5t20 51.5v101h-141q-56 0 -96 -29.5t-40 -71.5q0 -46 38.5 -74.5t95.5 -28.5q38 0 70.5 14z" />
    <glyph glyph-name="b" unicode="b" horiz-adv-x="647" 
d="M261 2.5q-38 14.5 -71 52.5q-3 4 -6 4q-5 0 -5 -10v-49h-79v755h79v-307q0 -7 5 -7t10 6q25 28 68 46.5t85 18.5q67 0 122 -33.5t86.5 -92.5t31.5 -133q0 -72 -33 -133t-88 -96.5t-119 -35.5q-48 0 -86 14.5zM422.5 89q37.5 24 58.5 67t21 97q0 50 -21 91.5t-57 66
t-81 24.5q-47 0 -85 -23.5t-60.5 -64.5t-22.5 -93q0 -54 21 -97t58.5 -67.5t83.5 -24.5q47 0 84.5 24z" />
    <glyph glyph-name="c" unicode="c" 
d="M182.5 22.5q-57.5 34.5 -90 94t-32.5 133.5q0 71 33.5 131t91 95.5t125.5 35.5q82 0 148 -52t90 -133h-90q-20 49 -59.5 78.5t-88.5 29.5q-45 0 -82.5 -25t-59.5 -67.5t-22 -92.5t22 -92.5t59.5 -67.5t82.5 -25q49 0 89 29.5t59 78.5h90q-24 -81 -89.5 -133t-148.5 -52
q-70 0 -127.5 34.5z" />
    <glyph glyph-name="d" unicode="d" horiz-adv-x="647" 
d="M178 21.5q-55 33.5 -86.5 92.5t-31.5 133q0 72 33 133t88.5 96.5t119.5 35.5q47 0 85 -14.5t71 -52.5q3 -4 6 -4q5 0 5 10v304h79v-755h-79v52q0 7 -5 7t-10 -6q-24 -28 -67.5 -46.5t-84.5 -18.5q-68 0 -123 33.5zM390 88.5q38 23.5 60 64.5t22 93q0 54 -21 97t-58 67.5
t-83 24.5q-47 0 -84.5 -24t-59 -67t-21.5 -97q0 -50 20.5 -91.5t57 -66t82.5 -24.5q47 0 85 23.5z" />
    <glyph glyph-name="e" unicode="e" horiz-adv-x="607" 
d="M546 239h-401q3 -47 25 -86.5t57 -62t76 -22.5q54 0 89.5 24t59.5 69h88q-27 -75 -91.5 -122.5t-145.5 -47.5q-66 0 -122 35t-88.5 95t-32.5 130t32.5 130t88.5 95t122 35t122 -35t89 -95t33 -130q0 -7 -1 -12zM454 319q-6 20 -24.5 46.5t-50.5 47.5t-76 21
q-52 0 -92.5 -34.5t-56.5 -90.5h290q13 0 10 10z" />
    <glyph glyph-name="f" unicode="f" horiz-adv-x="428" 
d="M65 427v73h91v113q0 61 40.5 101.5t101.5 40.5h65v-78h-65q-26 0 -44.5 -16.5t-18.5 -47.5v-113h128v-73h-128v-427h-79v427h-91z" />
    <glyph glyph-name="g" unicode="g" horiz-adv-x="654" 
d="M253.5 -275.5q-44.5 21.5 -70.5 58t-26 80.5q0 48 20.5 81t61.5 57q-54 12 -94.5 48.5t-62.5 87.5t-22 106q-1 73 32 134.5t91.5 98t128.5 36.5q43 0 79.5 -13.5t66.5 -45.5q7 -8 12 -8.5t5 6.5v49h79v-596q0 -60 -27.5 -106t-74 -70.5t-100.5 -24.5t-98.5 21.5z
M396 80.5q38 25.5 60.5 69t22.5 93.5q0 52 -22.5 96t-60.5 70t-83 26q-46 0 -84.5 -26t-61 -70t-22.5 -96q0 -51 22.5 -94t61 -68.5t84.5 -25.5q45 0 83 25.5zM440 -188.5q35 31.5 35 80.5v158q-24 -24 -52 -38.5t-64 -23.5q-121 -33 -121 -109q0 -43 33 -71t80 -28
q54 0 89 31.5z" />
    <glyph glyph-name="h" unicode="h" horiz-adv-x="605" 
d="M179 755v-298q0 -10 6 -10q5 0 11 6q24 25 55.5 42t89.5 17q79 -1 129 -49t50 -129v-334h-79v317q0 51 -30.5 85t-83.5 34q-73 0 -110.5 -37t-37.5 -105v-294h-79v755h79z" />
    <glyph glyph-name="i" unicode="i" horiz-adv-x="272" 
d="M86 611.5q-21 20.5 -21 50.5q0 29 21 49.5t50 20.5t50 -20.5t21 -49.5q0 -30 -21 -50.5t-50 -20.5t-50 20.5zM176 500v-500h-79v500h79z" />
    <glyph glyph-name="j" unicode="j" horiz-adv-x="274" 
d="M88 611.5q-21 20.5 -21 50.5q0 29 21 49.5t50 20.5t50 -20.5t21 -49.5q0 -30 -21 -50.5t-50 -20.5t-50 20.5zM34 -207q26 0 45 16.5t19 47.5v643h78v-643q0 -61 -40.5 -102t-101.5 -41h-59v79h59z" />
    <glyph glyph-name="k" unicode="k" horiz-adv-x="546" 
d="M179 755v-296q0 -7 4 -7q5 0 9 6q47 54 118 54q53 0 92.5 -21t60.5 -56.5t21 -78.5q0 -55 -30.5 -88.5t-92.5 -66.5l130 -201h-96l-109 168q-55 -27 -80.5 -65.5t-26.5 -102.5h-79v755h79zM273 239q45 23 69 38.5t40.5 35t16.5 44.5q0 36 -25.5 58.5t-71.5 22.5
q-33 0 -61.5 -16t-45 -41.5t-16.5 -53.5v-163q18 37 94 75z" />
    <glyph glyph-name="l" unicode="l" horiz-adv-x="279" 
d="M179 755v-755h-79v755h79z" />
    <glyph glyph-name="m" unicode="m" horiz-adv-x="878" 
d="M179 500v-43q0 -10 6 -10q5 0 11 6q23 25 51 42t77 17q52 -1 84 -20.5t57 -59.5q3 -5 6 -5q4 0 8 5q36 43 68.5 61.5t79.5 18.5q77 0 121.5 -47.5t44.5 -130.5v-334h-79v317q0 53 -24 86t-73 33q-54 0 -92.5 -31.5t-38.5 -80.5v-324h-79v317q0 52 -24.5 85.5t-72.5 33.5
q-63 0 -97 -37t-34 -105v-294h-79v500h79z" />
    <glyph glyph-name="n" unicode="n" horiz-adv-x="601" 
d="M179 500v-43q0 -10 6 -10q5 0 11 6q24 25 54.5 42t88.5 17q79 -1 128 -49t49 -129v-334h-79v317q0 51 -30 85t-82 34q-72 0 -109 -36.5t-37 -105.5v-294h-79v500h79z" />
    <glyph glyph-name="o" unicode="o" horiz-adv-x="619" 
d="M434.5 476.5q57.5 -35.5 91 -95.5t33.5 -131t-33.5 -131.5t-91 -95.5t-124.5 -35q-68 0 -125.5 35t-91 95.5t-33.5 131.5t33.5 131t91 95.5t125.5 35.5q67 0 124.5 -35.5zM391.5 90q37.5 25 59.5 67.5t22 92.5t-22 92.5t-59.5 67.5t-81.5 25q-45 0 -82.5 -25t-59.5 -67.5
t-22 -92.5t22 -92.5t59.5 -67.5t82.5 -25q44 0 81.5 25z" />
    <glyph glyph-name="p" unicode="p" horiz-adv-x="647" 
d="M179 500v-52q0 -7 5 -7t10 6q24 28 67.5 46.5t84.5 18.5q68 0 123 -33.5t86.5 -92.5t31.5 -133q0 -72 -33 -133t-88.5 -96.5t-119.5 -35.5q-47 0 -85 14.5t-71 52.5q-3 4 -6 4q-5 0 -5 -10v-335h-79v786h79zM422 89q38 24 59 67t21 97q0 50 -20.5 91.5t-57 66t-82.5 24.5
t-84.5 -23.5t-60.5 -65t-22 -92.5q0 -54 21 -97t58 -67.5t83 -24.5q47 0 85 24z" />
    <glyph glyph-name="q" unicode="q" horiz-adv-x="647" 
d="M463 59q-5 0 -10 -6q-24 -28 -67.5 -46.5t-84.5 -18.5q-68 0 -123 33.5t-86.5 92.5t-31.5 133q0 72 33 133t88.5 96.5t119.5 35.5q47 0 85 -14.5t71 -52.5q3 -4 6 -4q5 0 5 10v49h79v-786h-79v338q0 7 -5 7zM390 88.5q38 23.5 60 64.5t22 93q0 54 -21 97t-58 67.5
t-83 24.5q-47 0 -84.5 -24t-59 -67t-21.5 -97q0 -50 20.5 -91.5t57 -66t82.5 -24.5q47 0 85 23.5z" />
    <glyph glyph-name="r" unicode="r" horiz-adv-x="403" 
d="M180 500v-43q0 -5 2.5 -8.5t6.5 -3.5q5 0 10 5q50 50 131 50h48v-81h-79q-56 0 -87.5 -36t-31.5 -95v-288h-80v500h80z" />
    <glyph glyph-name="s" unicode="s" horiz-adv-x="520" 
d="M121.5 38q-56.5 47 -56.5 129h84q0 -51 34 -76t89 -25q44 0 71.5 17t27.5 52q0 22 -10.5 35t-35 23.5t-78.5 26.5q-63 20 -98.5 40.5t-51.5 46t-16 62.5q0 40 22.5 72.5t63 51t92.5 18.5q82 0 135 -43.5t56 -120.5h-86q0 41 -27.5 65t-73.5 24q-40 0 -68 -17t-28 -51
q0 -27 27.5 -44t100.5 -41q61 -20 94.5 -37.5t49.5 -42.5t16 -64q0 -72 -51.5 -110t-132.5 -38q-93 0 -149.5 47z" />
    <glyph glyph-name="t" unicode="t" horiz-adv-x="407" 
d="M176 40.5q-41 40.5 -41 100.5v286h-90v73h90v155h79v-155h128v-73h-128v-286q0 -31 18.5 -47t44.5 -16h65v-78h-65q-60 0 -101 40.5z" />
    <glyph glyph-name="u" unicode="u" horiz-adv-x="598" 
d="M133 39.5q-48 51.5 -48 136.5v324h79v-317q0 -54 27 -86.5t86 -32.5q65 0 103.5 37.5t38.5 104.5v294h79v-500h-79v43q0 10 -7 10q-6 0 -11 -5q-7 -5 -27 -22t-47 -27.5t-61 -10.5q-85 0 -133 51.5z" />
    <glyph glyph-name="v" unicode="v" horiz-adv-x="522" 
d="M108 500l144 -389q4 -10 10 -10q7 0 10 10l142 389h83l-184 -500h-102l-186 500h83z" />
    <glyph glyph-name="w" unicode="w" horiz-adv-x="828" 
d="M108 500l123 -396q3 -9 7 -9q5 0 8 9l127 396h85l124 -396q3 -8 8 -8q4 0 7 8l124 396h82l-165 -500h-100l-117 375q-3 9 -7 9q-3 0 -6 -9l-117 -375h-101l-165 500h83z" />
    <glyph glyph-name="x" unicode="x" horiz-adv-x="502" 
d="M35 500h95l112 -166q4 -6 8 -6t8 6l113 166h94l-168 -249l170 -251h-95l-114 170q-3 5 -7 5q-5 0 -8 -5l-115 -170h-95l170 251z" />
    <glyph glyph-name="y" unicode="y" horiz-adv-x="597" 
d="M205.5 -275.5q-44.5 21.5 -70.5 58t-26 80.5q0 48 20.5 80.5t61.5 57.5q-44 10 -75 54t-31 121v324h79v-317q0 -53 25.5 -86t77.5 -33q69 0 110 37.5t41 104.5v294h79v-596q0 -61 -26.5 -106.5t-70.5 -70t-96 -24.5q-54 0 -98.5 21.5zM386.5 -189.5q31.5 30.5 31.5 77.5
v162q-36 -43 -107 -62q-121 -35 -121 -113q0 -41 33 -68t80 -27q52 0 83.5 30.5z" />
    <glyph glyph-name="z" unicode="z" horiz-adv-x="504" 
d="M339 412q2 2 2 7q0 8 -8 8h-273v73h389v-75l-283 -335q-3 -4 -3 -7q0 -4 3 -6t6 -2h277v-75h-394v76z" />
    <glyph glyph-name="braceleft" unicode="{" horiz-adv-x="327" 
d="M104.5 335q23.5 21 23.5 68v162q0 78 13.5 113t48 46t110.5 11v-59q-42 0 -62 -9t-26.5 -29.5t-6.5 -60.5v-134q0 -54 -4 -82.5t-19.5 -49.5t-49.5 -37q32 -17 47.5 -38.5t20.5 -50.5t5 -80v-133q0 -41 6 -61t26 -29t63 -9v-59q-76 0 -110.5 11t-48 46t-13.5 113v160
q0 47 -23.5 68t-74.5 28v67q51 7 74.5 28z" />
    <glyph glyph-name="bar" unicode="|" horiz-adv-x="257" 
d="M167 783v-1033h-77v1033h77z" />
    <glyph glyph-name="braceright" unicode="}" horiz-adv-x="327" 
d="M222.5 212q-23.5 -21 -23.5 -68v-160q0 -78 -13.5 -113t-48 -46t-110.5 -11v59q43 0 63 9t26 29t6 61v133q0 51 4.5 80t19.5 50.5t47 38.5q-33 15 -48 36.5t-19 50t-4 82.5v134q0 40 -6.5 60.5t-26.5 29.5t-62 9v59q76 0 110.5 -11t48 -46t13.5 -113v-162q0 -47 23.5 -68
t74.5 -28v-67q-51 -7 -74.5 -28z" />
    <glyph glyph-name="asciitilde" unicode="~" horiz-adv-x="596" 
d="M137 317q42 30 87 30q23 0 44.5 -10t47.5 -29q4 -2 18.5 -11.5t26.5 -14t22 -4.5q24 0 40 16t36 51l72 -41q-41 -62 -72.5 -85t-70.5 -23q-28 0 -49 9t-48 27q-24 15 -38.5 21.5t-32.5 6.5q-26 0 -49 -17.5t-46 -54.5l-60 33q30 66 72 96z" />
    <glyph glyph-name="exclamdown" unicode="&#xa1;" horiz-adv-x="246" 
d="M173 743.5q21 -20.5 21 -50.5q0 -29 -21 -49.5t-50 -20.5t-50 20.5t-21 49.5q0 30 21 50.5t50 20.5t50 -20.5zM84 0v525h79v-525h-79z" />
    <glyph glyph-name="cent" unicode="&#xa2;" 
d="M399 94.5q40 29.5 59 78.5h90q-20 -71 -73.5 -120t-123.5 -61v-84h-79v83q-61 9 -109.5 45t-75.5 91.5t-27 122.5q0 64 28 120t76.5 93t107.5 46v88h79v-89q69 -12 122.5 -61t74.5 -120h-90q-20 49 -59.5 78.5t-88.5 29.5q-45 0 -82.5 -25t-59.5 -67.5t-22 -92.5
t22 -92.5t59.5 -67.5t82.5 -25q49 0 89 29.5z" />
    <glyph glyph-name="sterling" unicode="&#xa3;" horiz-adv-x="594" 
d="M163 170q27 42 27 86q0 28 -6 55h-114v73h92q-13 41 -20 76t-7 72q0 56 27.5 104t74.5 75.5t102 27.5t102 -28t75 -75.5t28 -103.5h-78q0 36 -17.5 66t-46.5 48t-63 18t-63.5 -18t-47 -48t-17.5 -66q0 -55 31 -148h192v-73h-172q5 -30 5 -55q0 -94 -78 -176h355v-80h-474
v80q66 48 93 90z" />
    <glyph glyph-name="currency" unicode="&#xa4;" horiz-adv-x="657" 
d="M519 99l58 -58l-56 -56l-58 58q-61 -43 -133 -43q-74 0 -135 44l-59 -59l-56 56l59 59q-47 68 -47 150q0 83 48 150l-60 60l56 56l60 -60q60 44 134 44q71 0 132 -43l59 59l56 -56l-59 -59q49 -66 49 -151q0 -84 -48 -151zM407.5 97.5q35.5 23.5 56.5 64t21 88.5
q0 47 -21 87.5t-56.5 64.5t-77.5 24q-43 0 -78.5 -24t-56.5 -64.5t-21 -87.5q0 -48 21 -88.5t56.5 -64t78.5 -23.5q42 0 77.5 23.5z" />
    <glyph glyph-name="yen" unicode="&#xa5;" horiz-adv-x="639" 
d="M599 478v-73h-121l-39 -83h160v-73h-195l-43 -91v-158h-83v158l-43 91h-200v73h165l-39 83h-126v73h92l-117 247h88l213 -460q3 -6 9 -6q5 0 8 6l212 460h89l-117 -247h87z" />
    <glyph glyph-name="brokenbar" unicode="&#xa6;" horiz-adv-x="257" 
d="M167 783v-423h-77v423h77zM167 173v-423h-77v423h77z" />
    <glyph glyph-name="section" unicode="&#xa7;" horiz-adv-x="651" 
d="M147 -234.5q-67 66.5 -70 183.5h91q2 -87 47 -130t116 -43q69 0 113 30t44 87q0 37 -16 59t-51.5 38.5t-117.5 45.5q-78 27 -120.5 51.5t-63.5 62.5t-18 100q1 52 28 94t73 66q-53 28 -77 67t-24 105q2 54 30.5 96.5t78 67t111.5 24.5q106 0 172.5 -61.5t70.5 -171.5h-92
q0 72 -39.5 114.5t-105.5 42.5q-59 0 -98.5 -30.5t-39.5 -91.5q0 -31 18 -53t55.5 -40.5t111.5 -46.5t115 -51.5t63 -58.5t22 -91q0 -60 -28.5 -103t-78.5 -68q56 -27 81.5 -64t25.5 -98q0 -64 -32.5 -109t-87.5 -67.5t-123 -22.5q-117 0 -184 66.5zM449.5 143
q38.5 30 38.5 83q0 36 -14.5 57.5t-48 38t-102.5 40.5q-57 -1 -95.5 -31.5t-38.5 -91.5q0 -29 15.5 -50t49 -39t93.5 -41q64 4 102.5 34z" />
    <glyph glyph-name="copyright" unicode="&#xa9;" horiz-adv-x="998" 
d="M278.5 -49q-100.5 59 -159.5 159.5t-59 220.5q0 119 59 219.5t159.5 159.5t220.5 59t220.5 -59t159.5 -159.5t59 -219.5q0 -120 -59 -220.5t-159.5 -159.5t-220.5 -59t-220.5 59zM681.5 11.5q83.5 49.5 132 134.5t48.5 185t-48.5 184.5t-132 134t-182.5 49.5
t-182.5 -49.5t-132 -134t-48.5 -184.5t48.5 -185t132 -134.5t182.5 -49.5t182.5 49.5zM378.5 121q-53.5 32 -84 87.5t-30.5 124.5q0 66 31.5 122t85.5 89t117 33q77 0 138 -48t84 -124l-87 -2q-18 45 -54.5 72t-81.5 27q-41 0 -75 -23t-54 -62t-20 -84q0 -46 20 -84.5
t54 -61.5t75 -23q45 0 82 27t54 72l87 -2q-22 -76 -83.5 -124t-138.5 -48q-66 0 -119.5 32z" />
    <glyph glyph-name="guillemotleft" unicode="&#xab;" horiz-adv-x="462" 
d="M30 248l140 211l62 -47l-109 -164l106 -157l-62 -47zM230 248l140 211l62 -47l-109 -164l106 -157l-62 -47z" />
    <glyph glyph-name="registered" unicode="&#xae;" horiz-adv-x="998" 
d="M278.5 -50q-100.5 59 -159.5 159.5t-59 220.5q0 119 59 219.5t159.5 159.5t220.5 59t220.5 -59t159.5 -159.5t59 -219.5q0 -120 -59 -220.5t-159.5 -159.5t-220.5 -59t-220.5 59zM681.5 10.5q83.5 49.5 132 134.5t48.5 185t-48.5 184.5t-132 134t-182.5 49.5
t-182.5 -49.5t-132 -134t-48.5 -184.5t48.5 -185t132 -134.5t182.5 -49.5t182.5 49.5zM529 575q86 0 129.5 -35t43.5 -88q0 -36 -19 -63t-61 -49q-40 -21 -68 -33l150 -225h-82l-134 197q-26 -11 -108 -40v-157h-74v493h223zM574 391q31 18 42.5 31t11.5 30q0 25 -24.5 41.5
t-67.5 16.5h-148q-4 0 -6 -2.5t-2 -5.5v-189q120 35 194 78z" />
    <glyph glyph-name="degree" unicode="&#xb0;" horiz-adv-x="427" 
d="M126 415.5q-40 23.5 -63 63.5t-23 88q0 47 23 86t63 62t88 23q47 0 86.5 -23t63 -62t23.5 -86q0 -48 -23.5 -88t-63 -63.5t-86.5 -23.5q-48 0 -88 23.5zM284 495.5q28 28.5 28 71.5q0 40 -28.5 68t-69.5 28q-42 0 -70.5 -27.5t-28.5 -68.5q0 -43 28.5 -71.5t70.5 -28.5
t70 28.5z" />
    <glyph glyph-name="plusminus" unicode="&#xb1;" horiz-adv-x="554" 
d="M65 388v80h159v155h82v-155h160v-80h-160v-158h-82v158h-159zM457 170v-82h-382v82h382z" />
    <glyph glyph-name="paragraph" unicode="&#xb6;" horiz-adv-x="729" 
d="M396 239q-144 87 -238 163q-49 40 -73.5 78t-24.5 87q0 51 25.5 94t68.5 68.5t94 25.5h230v-755h-82v239zM629 755v-755h-79v755h79z" />
    <glyph glyph-name="periodcentered" unicode="&#xb7;" horiz-adv-x="322" 
d="M111 204.5q-21 20.5 -21 50.5q0 29 21 49.5t50 20.5t50 -20.5t21 -49.5q0 -30 -21 -50.5t-50 -20.5t-50 20.5z" />
    <glyph glyph-name="guillemotright" unicode="&#xbb;" horiz-adv-x="462" 
d="M30 412l62 47l140 -211l-137 -204l-62 47l106 157zM230 412l62 47l140 -211l-137 -204l-62 47l106 157z" />
    <glyph glyph-name="onequarter" unicode="&#xbc;" horiz-adv-x="849" 
d="M151 17l357 722l72 -29l-357 -722zM70 646v79h153v-354h-82v275h-71zM429 64l100 299h79l-78 -220l-1 -2q0 -4 8 -4h88v103h79v-103h62v-73h-62v-64h-79v64h-196z" />
    <glyph glyph-name="onehalf" unicode="&#xbd;" horiz-adv-x="849" 
d="M151 17l357 722l72 -29l-357 -722zM70 646v79h153v-354h-82v275h-71zM516 92q60 23 94.5 40t57.5 40.5t23 54.5q0 28 -21.5 47.5t-52.5 19.5t-52.5 -20.5t-21.5 -49.5v-9h-80v9q0 40 20.5 73t56 52.5t77.5 19.5t77.5 -18.5t56.5 -50.5t21 -71q0 -54 -39 -85t-108 -57
q-6 -1 -6 -6q0 -6 9 -6h142v-75h-307v71z" />
    <glyph glyph-name="threequarters" unicode="&#xbe;" horiz-adv-x="943" 
d="M133 378q-38 15 -60.5 42t-22.5 61h80q0 -22 25 -34.5t62 -12.5q29 0 52.5 13.5t23.5 33.5q0 22 -20 34.5t-56 12.5h-60v63h57q30 0 45.5 11.5t15.5 27.5t-16 27.5t-42 11.5q-29 0 -48.5 -12t-19.5 -29h-80q0 31 20 56.5t54 40.5t74 15q61 0 99 -29t38 -74q0 -41 -47 -73
q30 -11 48 -33.5t18 -49.5q0 -51 -45.5 -84.5t-110.5 -33.5q-46 0 -84 15zM245 17l357 722l72 -29l-357 -722zM523 64l100 299h79l-78 -220l-1 -2q0 -4 8 -4h88v103h79v-103h62v-73h-62v-64h-79v64h-196z" />
    <glyph glyph-name="questiondown" unicode="&#xbf;" horiz-adv-x="485" 
d="M314 744.5q21 -20.5 21 -50.5q0 -29 -21 -49.5t-50 -20.5t-50 20.5t-21 49.5q0 30 21 50.5t50 20.5t50 -20.5zM197 330l-26 -44q-17 -28 -27 -57.5t-10 -52.5q0 -46 32 -79t79 -33t80 33.5t33 80.5v54h79v-54q0 -53 -26 -97t-70 -70t-96 -26q-50 0 -94.5 24.5t-71 66
t-26.5 91.5q0 36 13.5 68.5t42.5 87.5q42 80 122 203h88q-47 -71 -122 -196z" />
    <glyph glyph-name="Agrave" unicode="&#xc0;" horiz-adv-x="689" 
d="M275 992l200 -117l-40 -69l-200 117zM389 755l245 -755h-86l-53 162h-301l-53 -162h-86l245 755h89zM354 622q-3 9 -10 9t-10 -9l-114 -379h249z" />
    <glyph glyph-name="Aacute" unicode="&#xc1;" horiz-adv-x="689" 
d="M435 992l40 -69l-200 -117l-40 69zM389 755l245 -755h-86l-53 162h-301l-53 -162h-86l245 755h89zM354 622q-3 9 -10 9t-10 -9l-114 -379h249z" />
    <glyph glyph-name="Acircumflex" unicode="&#xc2;" horiz-adv-x="689" 
d="M344 995l176 -117l-47 -62l-129 86l-127 -86l-47 62zM389 755l245 -755h-86l-53 162h-301l-53 -162h-86l245 755h89zM354 622q-3 9 -10 9t-10 -9l-114 -379h249z" />
    <glyph glyph-name="Atilde" unicode="&#xc3;" horiz-adv-x="689" 
d="M209.5 944.5q35.5 25.5 74.5 25.5q20 0 38 -8.5t41 -24.5q18 -13 31.5 -19.5t25.5 -6.5q21 0 34 13.5t31 43.5l70 -35q-37 -59 -66 -80t-65 -21q-25 0 -43 8t-40 23q-20 12 -32.5 18t-27.5 6q-39 0 -73 -62l-60 37q26 57 61.5 82.5zM389 755l245 -755h-86l-53 162h-301
l-53 -162h-86l245 755h89zM354 622q-3 9 -10 9t-10 -9l-114 -379h249z" />
    <glyph glyph-name="Adieresis" unicode="&#xc4;" horiz-adv-x="689" 
d="M185 847.5q-21 20.5 -21 50.5q0 29 21 49.5t50 20.5t50 -20.5t21 -49.5q0 -30 -21 -50.5t-50 -20.5t-50 20.5zM403 847.5q-21 20.5 -21 50.5q0 29 21 49.5t50 20.5t50 -20.5t21 -49.5q0 -30 -21 -50.5t-50 -20.5t-50 20.5zM389 755l245 -755h-86l-53 162h-301l-53 -162
h-86l245 755h89zM354 622q-3 9 -10 9t-10 -9l-114 -379h249z" />
    <glyph glyph-name="AE" unicode="&#xc6;" horiz-adv-x="944" 
d="M806 755v-78h-285q-5 0 -9 -4t-4 -9v-182h298v-82h-298v-306q1 -5 5 -8.5t9 -3.5h382v-82h-478v163h-260l-96 -163h-90l446 755h380zM426 592q0 4 -3.5 5t-5.5 -3l-205 -351h214v349z" />
    <glyph glyph-name="Ccedilla" unicode="&#xc7;" horiz-adv-x="863" 
d="M596 125q70 52 101 136h91q-22 -76 -71.5 -136t-117.5 -95.5t-146 -37.5l-23 -79q26 16 58 16q40 0 66.5 -24.5t26.5 -63.5q0 -48 -31.5 -73t-81.5 -25q-74 0 -111 41l48 35q15 -22 56 -22q21 0 34 10t13 30q0 19 -12 29t-34 10q-16 0 -31.5 -6.5t-27.5 -17.5l-58 13
l42 131q-90 13 -161 66.5t-111 136.5t-40 179q0 104 49.5 192.5t133.5 140t183 51.5q80 0 151 -34.5t122 -95.5t74 -139h-91q-31 84 -101 136t-155 52q-75 0 -138.5 -41t-100.5 -110.5t-37 -151.5q0 -84 36 -153.5t99 -110.5t141 -41q85 0 155 52z" />
    <glyph glyph-name="Egrave" unicode="&#xc8;" horiz-adv-x="620" 
d="M235 992l200 -117l-40 -69l-200 117zM482 755v-78h-287q-5 0 -9 -4t-4 -9v-184h300v-78h-300v-309q0 -5 4 -9t9 -4h385v-80h-480v755h382z" />
    <glyph glyph-name="Eacute" unicode="&#xc9;" horiz-adv-x="620" 
d="M395 992l40 -69l-200 -117l-40 69zM482 755v-78h-287q-5 0 -9 -4t-4 -9v-184h300v-78h-300v-309q0 -5 4 -9t9 -4h385v-80h-480v755h382z" />
    <glyph glyph-name="Ecircumflex" unicode="&#xca;" horiz-adv-x="620" 
d="M304 995l176 -117l-47 -62l-129 86l-127 -86l-47 62zM482 755v-78h-287q-5 0 -9 -4t-4 -9v-184h300v-78h-300v-309q0 -5 4 -9t9 -4h385v-80h-480v755h382z" />
    <glyph glyph-name="Edieresis" unicode="&#xcb;" horiz-adv-x="620" 
d="M145 847.5q-21 20.5 -21 50.5q0 29 21 49.5t50 20.5t50 -20.5t21 -49.5q0 -30 -21 -50.5t-50 -20.5t-50 20.5zM363 847.5q-21 20.5 -21 50.5q0 29 21 49.5t50 20.5t50 -20.5t21 -49.5q0 -30 -21 -50.5t-50 -20.5t-50 20.5zM482 755v-78h-287q-5 0 -9 -4t-4 -9v-184h300
v-78h-300v-309q0 -5 4 -9t9 -4h385v-80h-480v755h382z" />
    <glyph glyph-name="Igrave" unicode="&#xcc;" horiz-adv-x="282" 
d="M70 992l200 -117l-40 -69l-200 117zM182 755v-755h-82v755h82z" />
    <glyph glyph-name="Iacute" unicode="&#xcd;" horiz-adv-x="282" 
d="M230 992l40 -69l-200 -117l-40 69zM182 755v-755h-82v755h82z" />
    <glyph glyph-name="Icircumflex" unicode="&#xce;" horiz-adv-x="282" 
d="M139 995l176 -117l-47 -62l-129 86l-127 -86l-47 62zM182 755v-755h-82v755h82z" />
    <glyph glyph-name="Idieresis" unicode="&#xcf;" horiz-adv-x="282" 
d="M-20 847.5q-21 20.5 -21 50.5q0 29 21 49.5t50 20.5t50 -20.5t21 -49.5q0 -30 -21 -50.5t-50 -20.5t-50 20.5zM198 847.5q-21 20.5 -21 50.5q0 29 21 49.5t50 20.5t50 -20.5t21 -49.5q0 -30 -21 -50.5t-50 -20.5t-50 20.5zM182 755v-755h-82v755h82z" />
    <glyph glyph-name="Ntilde" unicode="&#xd1;" horiz-adv-x="745" 
d="M219.5 944.5q35.5 25.5 74.5 25.5q20 0 38 -8.5t41 -24.5q18 -13 31.5 -19.5t25.5 -6.5q21 0 34 13.5t31 43.5l70 -35q-37 -59 -66 -80t-65 -21q-25 0 -43 8t-40 23q-20 12 -32.5 18t-27.5 6q-39 0 -73 -62l-60 37q26 57 61.5 82.5zM182 755l375 -599q2 -4 5 -3t3 5v597
h80v-755h-82l-375 599q-2 4 -5 3t-3 -5v-597h-80v755h82z" />
    <glyph glyph-name="Ograve" unicode="&#xd2;" horiz-adv-x="932" 
d="M397 992l200 -117l-40 -69l-200 117zM661.5 717q89.5 -53 142.5 -142.5t53 -195.5t-53 -195.5t-142.5 -142.5t-195.5 -53t-195.5 53t-142.5 142.5t-53 195.5t53 195.5t142.5 142.5t195.5 53t195.5 -53zM617 111q69 42 110 113t41 155t-41 155t-110 113t-151 42
t-151.5 -42t-110 -113t-40.5 -155t40.5 -155t110 -113t151.5 -42t151 42z" />
    <glyph glyph-name="Oacute" unicode="&#xd3;" horiz-adv-x="932" 
d="M557 992l40 -69l-200 -117l-40 69zM661.5 717q89.5 -53 142.5 -142.5t53 -195.5t-53 -195.5t-142.5 -142.5t-195.5 -53t-195.5 53t-142.5 142.5t-53 195.5t53 195.5t142.5 142.5t195.5 53t195.5 -53zM617 111q69 42 110 113t41 155t-41 155t-110 113t-151 42t-151.5 -42
t-110 -113t-40.5 -155t40.5 -155t110 -113t151.5 -42t151 42z" />
    <glyph glyph-name="Ocircumflex" unicode="&#xd4;" horiz-adv-x="932" 
d="M466 995l176 -117l-47 -62l-129 86l-127 -86l-47 62zM661.5 717q89.5 -53 142.5 -142.5t53 -195.5t-53 -195.5t-142.5 -142.5t-195.5 -53t-195.5 53t-142.5 142.5t-53 195.5t53 195.5t142.5 142.5t195.5 53t195.5 -53zM617 111q69 42 110 113t41 155t-41 155t-110 113
t-151 42t-151.5 -42t-110 -113t-40.5 -155t40.5 -155t110 -113t151.5 -42t151 42z" />
    <glyph glyph-name="Otilde" unicode="&#xd5;" horiz-adv-x="932" 
d="M331.5 944.5q35.5 25.5 74.5 25.5q20 0 38 -8.5t41 -24.5q18 -13 31.5 -19.5t25.5 -6.5q21 0 34 13.5t31 43.5l70 -35q-37 -59 -66 -80t-65 -21q-25 0 -43 8t-40 23q-20 12 -32.5 18t-27.5 6q-39 0 -73 -62l-60 37q26 57 61.5 82.5zM661.5 717q89.5 -53 142.5 -142.5
t53 -195.5t-53 -195.5t-142.5 -142.5t-195.5 -53t-195.5 53t-142.5 142.5t-53 195.5t53 195.5t142.5 142.5t195.5 53t195.5 -53zM617 111q69 42 110 113t41 155t-41 155t-110 113t-151 42t-151.5 -42t-110 -113t-40.5 -155t40.5 -155t110 -113t151.5 -42t151 42z" />
    <glyph glyph-name="Odieresis" unicode="&#xd6;" horiz-adv-x="932" 
d="M307 847.5q-21 20.5 -21 50.5q0 29 21 49.5t50 20.5t50 -20.5t21 -49.5q0 -30 -21 -50.5t-50 -20.5t-50 20.5zM525 847.5q-21 20.5 -21 50.5q0 29 21 49.5t50 20.5t50 -20.5t21 -49.5q0 -30 -21 -50.5t-50 -20.5t-50 20.5zM661.5 717q89.5 -53 142.5 -142.5t53 -195.5
t-53 -195.5t-142.5 -142.5t-195.5 -53t-195.5 53t-142.5 142.5t-53 195.5t53 195.5t142.5 142.5t195.5 53t195.5 -53zM617 111q69 42 110 113t41 155t-41 155t-110 113t-151 42t-151.5 -42t-110 -113t-40.5 -155t40.5 -155t110 -113t151.5 -42t151 42z" />
    <glyph glyph-name="multiply" unicode="&#xd7;" horiz-adv-x="604" 
d="M243 307l-158 138l55 62l165 -144l161 144l55 -59l-155 -139l159 -138l-54 -61l-166 144l-161 -144l-55 59z" />
    <glyph glyph-name="Ugrave" unicode="&#xd9;" horiz-adv-x="733" 
d="M298 992l200 -117l-40 -69l-200 117zM643 755v-478q0 -86 -36 -150.5t-99 -99.5t-141 -35q-79 0 -142 35t-99 99.5t-36 150.5v478h82v-478q0 -96 54.5 -150t140.5 -54t140 54t54 150v478h82z" />
    <glyph glyph-name="Uacute" unicode="&#xda;" horiz-adv-x="733" 
d="M458 992l40 -69l-200 -117l-40 69zM643 755v-478q0 -86 -36 -150.5t-99 -99.5t-141 -35q-79 0 -142 35t-99 99.5t-36 150.5v478h82v-478q0 -96 54.5 -150t140.5 -54t140 54t54 150v478h82z" />
    <glyph glyph-name="Ucircumflex" unicode="&#xdb;" horiz-adv-x="733" 
d="M367 995l176 -117l-47 -62l-129 86l-127 -86l-47 62zM643 755v-478q0 -86 -36 -150.5t-99 -99.5t-141 -35q-79 0 -142 35t-99 99.5t-36 150.5v478h82v-478q0 -96 54.5 -150t140.5 -54t140 54t54 150v478h82z" />
    <glyph glyph-name="Udieresis" unicode="&#xdc;" horiz-adv-x="733" 
d="M208 847.5q-21 20.5 -21 50.5q0 29 21 49.5t50 20.5t50 -20.5t21 -49.5q0 -30 -21 -50.5t-50 -20.5t-50 20.5zM426 847.5q-21 20.5 -21 50.5q0 29 21 49.5t50 20.5t50 -20.5t21 -49.5q0 -30 -21 -50.5t-50 -20.5t-50 20.5zM643 755v-478q0 -86 -36 -150.5t-99 -99.5
t-141 -35q-79 0 -142 35t-99 99.5t-36 150.5v478h82v-478q0 -96 54.5 -150t140.5 -54t140 54t54 150v478h82z" />
    <glyph glyph-name="Yacute" unicode="&#xdd;" horiz-adv-x="614" 
d="M395 992l40 -69l-200 -117l-40 69zM10 755h89l196 -480q3 -5 7 -5t6 5l207 480h89l-328 -755h-90l71 162z" />
    <glyph glyph-name="germandbls" unicode="&#xdf;" horiz-adv-x="613" 
d="M126 665q26 50 71.5 77.5t101.5 27.5q54 0 100 -27t73 -73t27 -101q0 -47 -20 -88t-55 -69q48 -31 75.5 -79.5t27.5 -106.5q0 -61 -30.5 -113t-82.5 -82.5t-113 -30.5h-34v82h32q40 0 73.5 19t53 52t19.5 73t-19.5 72.5t-53 51.5t-73.5 19h-32v82h32q48 0 82.5 34.5
t34.5 83.5t-34.5 84t-82.5 35q-52 0 -86 -37.5t-34 -102.5v-548h-79v548q0 67 26 117z" />
    <glyph glyph-name="agrave" unicode="&#xe0;" horiz-adv-x="577" 
d="M235 754l200 -117l-40 -69l-200 117zM151.5 10.5q-44.5 22.5 -70.5 63.5t-26 94q0 45 25.5 84.5t74.5 62.5q-23 35 -23 67q0 36 22.5 65t61.5 45.5t87 16.5q81 0 135 -44.5t54 -138.5v-326h-75v41v4q0 16 -9 14q-3 -1 -24 -20.5t-54 -35t-80 -15.5q-54 0 -98.5 22.5z
M252 337h165q-1 49 -35 75t-82 26q-45 0 -67.5 -19.5t-22.5 -47.5q0 -20 11 -36q9 2 31 2zM344.5 78q32.5 14 52.5 37.5t20 51.5v101h-141q-56 0 -96 -29.5t-40 -71.5q0 -46 38.5 -74.5t95.5 -28.5q38 0 70.5 14z" />
    <glyph glyph-name="aacute" unicode="&#xe1;" horiz-adv-x="577" 
d="M395 754l40 -69l-200 -117l-40 69zM151.5 10.5q-44.5 22.5 -70.5 63.5t-26 94q0 45 25.5 84.5t74.5 62.5q-23 35 -23 67q0 36 22.5 65t61.5 45.5t87 16.5q81 0 135 -44.5t54 -138.5v-326h-75v41v4q0 16 -9 14q-3 -1 -24 -20.5t-54 -35t-80 -15.5q-54 0 -98.5 22.5z
M252 337h165q-1 49 -35 75t-82 26q-45 0 -67.5 -19.5t-22.5 -47.5q0 -20 11 -36q9 2 31 2zM344.5 78q32.5 14 52.5 37.5t20 51.5v101h-141q-56 0 -96 -29.5t-40 -71.5q0 -46 38.5 -74.5t95.5 -28.5q38 0 70.5 14z" />
    <glyph glyph-name="acircumflex" unicode="&#xe2;" horiz-adv-x="577" 
d="M304 757l176 -117l-47 -62l-129 86l-127 -86l-47 62zM151.5 10.5q-44.5 22.5 -70.5 63.5t-26 94q0 45 25.5 84.5t74.5 62.5q-23 35 -23 67q0 36 22.5 65t61.5 45.5t87 16.5q81 0 135 -44.5t54 -138.5v-326h-75v41v4q0 16 -9 14q-3 -1 -24 -20.5t-54 -35t-80 -15.5
q-54 0 -98.5 22.5zM252 337h165q-1 49 -35 75t-82 26q-45 0 -67.5 -19.5t-22.5 -47.5q0 -20 11 -36q9 2 31 2zM344.5 78q32.5 14 52.5 37.5t20 51.5v101h-141q-56 0 -96 -29.5t-40 -71.5q0 -46 38.5 -74.5t95.5 -28.5q38 0 70.5 14z" />
    <glyph glyph-name="atilde" unicode="&#xe3;" horiz-adv-x="577" 
d="M169.5 706.5q35.5 25.5 74.5 25.5q20 0 38 -8.5t41 -24.5q18 -13 31.5 -19.5t25.5 -6.5q21 0 34 13.5t31 43.5l70 -35q-37 -59 -66 -80t-65 -21q-25 0 -43 8t-40 23q-20 12 -32.5 18t-27.5 6q-39 0 -73 -62l-60 37q26 57 61.5 82.5zM151.5 10.5q-44.5 22.5 -70.5 63.5
t-26 94q0 45 25.5 84.5t74.5 62.5q-23 35 -23 67q0 36 22.5 65t61.5 45.5t87 16.5q81 0 135 -44.5t54 -138.5v-326h-75v41v4q0 16 -9 14q-3 -1 -24 -20.5t-54 -35t-80 -15.5q-54 0 -98.5 22.5zM252 337h165q-1 49 -35 75t-82 26q-45 0 -67.5 -19.5t-22.5 -47.5q0 -20 11 -36
q9 2 31 2zM344.5 78q32.5 14 52.5 37.5t20 51.5v101h-141q-56 0 -96 -29.5t-40 -71.5q0 -46 38.5 -74.5t95.5 -28.5q38 0 70.5 14z" />
    <glyph glyph-name="adieresis" unicode="&#xe4;" horiz-adv-x="577" 
d="M145 609.5q-21 20.5 -21 50.5q0 29 21 49.5t50 20.5t50 -20.5t21 -49.5q0 -30 -21 -50.5t-50 -20.5t-50 20.5zM363 609.5q-21 20.5 -21 50.5q0 29 21 49.5t50 20.5t50 -20.5t21 -49.5q0 -30 -21 -50.5t-50 -20.5t-50 20.5zM151.5 10.5q-44.5 22.5 -70.5 63.5t-26 94
q0 45 25.5 84.5t74.5 62.5q-23 35 -23 67q0 36 22.5 65t61.5 45.5t87 16.5q81 0 135 -44.5t54 -138.5v-326h-75v41v4q0 16 -9 14q-3 -1 -24 -20.5t-54 -35t-80 -15.5q-54 0 -98.5 22.5zM252 337h165q-1 49 -35 75t-82 26q-45 0 -67.5 -19.5t-22.5 -47.5q0 -20 11 -36
q9 2 31 2zM344.5 78q32.5 14 52.5 37.5t20 51.5v101h-141q-56 0 -96 -29.5t-40 -71.5q0 -46 38.5 -74.5t95.5 -28.5q38 0 70.5 14z" />
    <glyph glyph-name="ae" unicode="&#xe6;" horiz-adv-x="962" 
d="M164 10.5q-49 20.5 -79 58t-30 84.5q0 49 23.5 80t70.5 57q-36 36 -36 84q0 35 21 66t62 50.5t98 19.5t103 -24.5t72 -71.5q34 45 83.5 70.5t105.5 25.5q66 0 122 -35t89 -95t33 -130l-1 -12h-406q3 -48 25.5 -87.5t59 -62.5t78.5 -23q46 0 85 26t61 69h87
q-27 -75 -90.5 -122.5t-142.5 -47.5q-60 0 -111.5 25.5t-84.5 73.5q-31 -55 -87 -77t-108 -22q-54 0 -103 20.5zM250 311h164q0 33 -15 62.5t-43 48t-65 18.5q-48 0 -70.5 -19.5t-22.5 -48.5q0 -17 6.5 -34.5t17.5 -28.5q18 2 28 2zM809 322q-5 18 -23.5 43.5t-51 45
t-76.5 19.5q-54 0 -96.5 -32t-58.5 -87h296q13 0 10 11zM378 99.5q36 35.5 36 106.5v32h-137q-63 0 -99.5 -22t-36.5 -64q0 -36 37.5 -62t98.5 -26q65 0 101 35.5z" />
    <glyph glyph-name="ccedilla" unicode="&#xe7;" 
d="M399 94.5q40 29.5 59 78.5h90q-23 -80 -87.5 -132t-146.5 -53l-22 -75q26 16 58 16q40 0 66.5 -24.5t26.5 -63.5q0 -48 -31.5 -73t-81.5 -25q-74 0 -111 41l48 35q15 -22 56 -22q21 0 34 10t13 30q0 19 -12 29t-34 10q-16 0 -31.5 -6.5t-27.5 -17.5l-58 13l42 130
q-84 20 -136.5 90.5t-52.5 164.5q0 71 33.5 131t91 95.5t125.5 35.5q82 0 148 -52t90 -133h-90q-20 49 -59.5 78.5t-88.5 29.5q-45 0 -82.5 -25t-59.5 -67.5t-22 -92.5t22 -92.5t59.5 -67.5t82.5 -25q49 0 89 29.5z" />
    <glyph glyph-name="egrave" unicode="&#xe8;" horiz-adv-x="607" 
d="M235 754l200 -117l-40 -69l-200 117zM546 239h-401q3 -47 25 -86.5t57 -62t76 -22.5q54 0 89.5 24t59.5 69h88q-27 -75 -91.5 -122.5t-145.5 -47.5q-66 0 -122 35t-88.5 95t-32.5 130t32.5 130t88.5 95t122 35t122 -35t89 -95t33 -130q0 -7 -1 -12zM454 319
q-6 20 -24.5 46.5t-50.5 47.5t-76 21q-52 0 -92.5 -34.5t-56.5 -90.5h290q13 0 10 10z" />
    <glyph glyph-name="eacute" unicode="&#xe9;" horiz-adv-x="607" 
d="M395 754l40 -69l-200 -117l-40 69zM546 239h-401q3 -47 25 -86.5t57 -62t76 -22.5q54 0 89.5 24t59.5 69h88q-27 -75 -91.5 -122.5t-145.5 -47.5q-66 0 -122 35t-88.5 95t-32.5 130t32.5 130t88.5 95t122 35t122 -35t89 -95t33 -130q0 -7 -1 -12zM454 319
q-6 20 -24.5 46.5t-50.5 47.5t-76 21q-52 0 -92.5 -34.5t-56.5 -90.5h290q13 0 10 10z" />
    <glyph glyph-name="ecircumflex" unicode="&#xea;" horiz-adv-x="607" 
d="M304 757l176 -117l-47 -62l-129 86l-127 -86l-47 62zM546 239h-401q3 -47 25 -86.5t57 -62t76 -22.5q54 0 89.5 24t59.5 69h88q-27 -75 -91.5 -122.5t-145.5 -47.5q-66 0 -122 35t-88.5 95t-32.5 130t32.5 130t88.5 95t122 35t122 -35t89 -95t33 -130q0 -7 -1 -12z
M454 319q-6 20 -24.5 46.5t-50.5 47.5t-76 21q-52 0 -92.5 -34.5t-56.5 -90.5h290q13 0 10 10z" />
    <glyph glyph-name="edieresis" unicode="&#xeb;" horiz-adv-x="607" 
d="M145 609.5q-21 20.5 -21 50.5q0 29 21 49.5t50 20.5t50 -20.5t21 -49.5q0 -30 -21 -50.5t-50 -20.5t-50 20.5zM363 609.5q-21 20.5 -21 50.5q0 29 21 49.5t50 20.5t50 -20.5t21 -49.5q0 -30 -21 -50.5t-50 -20.5t-50 20.5zM546 239h-401q3 -47 25 -86.5t57 -62t76 -22.5
q54 0 89.5 24t59.5 69h88q-27 -75 -91.5 -122.5t-145.5 -47.5q-66 0 -122 35t-88.5 95t-32.5 130t32.5 130t88.5 95t122 35t122 -35t89 -95t33 -130q0 -7 -1 -12zM454 319q-6 20 -24.5 46.5t-50.5 47.5t-76 21q-52 0 -92.5 -34.5t-56.5 -90.5h290q13 0 10 10z" />
    <glyph glyph-name="igrave" unicode="&#xec;" horiz-adv-x="272" 
d="M67 754l200 -117l-40 -69l-200 117zM176 500v-500h-79v500h79z" />
    <glyph glyph-name="iacute" unicode="&#xed;" horiz-adv-x="272" 
d="M227 754l40 -69l-200 -117l-40 69zM176 500v-500h-79v500h79z" />
    <glyph glyph-name="icircumflex" unicode="&#xee;" horiz-adv-x="272" 
d="M136 757l176 -117l-47 -62l-129 86l-127 -86l-47 62zM176 500v-500h-79v500h79z" />
    <glyph glyph-name="idieresis" unicode="&#xef;" horiz-adv-x="272" 
d="M-23 609.5q-21 20.5 -21 50.5q0 29 21 49.5t50 20.5t50 -20.5t21 -49.5q0 -30 -21 -50.5t-50 -20.5t-50 20.5zM195 609.5q-21 20.5 -21 50.5q0 29 21 49.5t50 20.5t50 -20.5t21 -49.5q0 -30 -21 -50.5t-50 -20.5t-50 20.5zM176 500v-500h-79v500h79z" />
    <glyph glyph-name="ntilde" unicode="&#xf1;" horiz-adv-x="601" 
d="M173.5 706.5q35.5 25.5 74.5 25.5q20 0 38 -8.5t41 -24.5q18 -13 31.5 -19.5t25.5 -6.5q21 0 34 13.5t31 43.5l70 -35q-37 -59 -66 -80t-65 -21q-25 0 -43 8t-40 23q-20 12 -32.5 18t-27.5 6q-39 0 -73 -62l-60 37q26 57 61.5 82.5zM179 500v-43q0 -10 6 -10q5 0 11 6
q24 25 54.5 42t88.5 17q79 -1 128 -49t49 -129v-334h-79v317q0 51 -30 85t-82 34q-72 0 -109 -36.5t-37 -105.5v-294h-79v500h79z" />
    <glyph glyph-name="ograve" unicode="&#xf2;" horiz-adv-x="619" 
d="M241 754l200 -117l-40 -69l-200 117zM434.5 476.5q57.5 -35.5 91 -95.5t33.5 -131t-33.5 -131.5t-91 -95.5t-124.5 -35q-68 0 -125.5 35t-91 95.5t-33.5 131.5t33.5 131t91 95.5t125.5 35.5q67 0 124.5 -35.5zM391.5 90q37.5 25 59.5 67.5t22 92.5t-22 92.5t-59.5 67.5
t-81.5 25q-45 0 -82.5 -25t-59.5 -67.5t-22 -92.5t22 -92.5t59.5 -67.5t82.5 -25q44 0 81.5 25z" />
    <glyph glyph-name="oacute" unicode="&#xf3;" horiz-adv-x="619" 
d="M401 754l40 -69l-200 -117l-40 69zM434.5 476.5q57.5 -35.5 91 -95.5t33.5 -131t-33.5 -131.5t-91 -95.5t-124.5 -35q-68 0 -125.5 35t-91 95.5t-33.5 131.5t33.5 131t91 95.5t125.5 35.5q67 0 124.5 -35.5zM391.5 90q37.5 25 59.5 67.5t22 92.5t-22 92.5t-59.5 67.5
t-81.5 25q-45 0 -82.5 -25t-59.5 -67.5t-22 -92.5t22 -92.5t59.5 -67.5t82.5 -25q44 0 81.5 25z" />
    <glyph glyph-name="ocircumflex" unicode="&#xf4;" horiz-adv-x="619" 
d="M310 757l176 -117l-47 -62l-129 86l-127 -86l-47 62zM434.5 476.5q57.5 -35.5 91 -95.5t33.5 -131t-33.5 -131.5t-91 -95.5t-124.5 -35q-68 0 -125.5 35t-91 95.5t-33.5 131.5t33.5 131t91 95.5t125.5 35.5q67 0 124.5 -35.5zM391.5 90q37.5 25 59.5 67.5t22 92.5
t-22 92.5t-59.5 67.5t-81.5 25q-45 0 -82.5 -25t-59.5 -67.5t-22 -92.5t22 -92.5t59.5 -67.5t82.5 -25q44 0 81.5 25z" />
    <glyph glyph-name="otilde" unicode="&#xf5;" horiz-adv-x="619" 
d="M175.5 706.5q35.5 25.5 74.5 25.5q20 0 38 -8.5t41 -24.5q18 -13 31.5 -19.5t25.5 -6.5q21 0 34 13.5t31 43.5l70 -35q-37 -59 -66 -80t-65 -21q-25 0 -43 8t-40 23q-20 12 -32.5 18t-27.5 6q-39 0 -73 -62l-60 37q26 57 61.5 82.5zM434.5 476.5q57.5 -35.5 91 -95.5
t33.5 -131t-33.5 -131.5t-91 -95.5t-124.5 -35q-68 0 -125.5 35t-91 95.5t-33.5 131.5t33.5 131t91 95.5t125.5 35.5q67 0 124.5 -35.5zM391.5 90q37.5 25 59.5 67.5t22 92.5t-22 92.5t-59.5 67.5t-81.5 25q-45 0 -82.5 -25t-59.5 -67.5t-22 -92.5t22 -92.5t59.5 -67.5
t82.5 -25q44 0 81.5 25z" />
    <glyph glyph-name="odieresis" unicode="&#xf6;" horiz-adv-x="619" 
d="M151 609.5q-21 20.5 -21 50.5q0 29 21 49.5t50 20.5t50 -20.5t21 -49.5q0 -30 -21 -50.5t-50 -20.5t-50 20.5zM369 609.5q-21 20.5 -21 50.5q0 29 21 49.5t50 20.5t50 -20.5t21 -49.5q0 -30 -21 -50.5t-50 -20.5t-50 20.5zM434.5 476.5q57.5 -35.5 91 -95.5t33.5 -131
t-33.5 -131.5t-91 -95.5t-124.5 -35q-68 0 -125.5 35t-91 95.5t-33.5 131.5t33.5 131t91 95.5t125.5 35.5q67 0 124.5 -35.5zM391.5 90q37.5 25 59.5 67.5t22 92.5t-22 92.5t-59.5 67.5t-81.5 25q-45 0 -82.5 -25t-59.5 -67.5t-22 -92.5t22 -92.5t59.5 -67.5t82.5 -25
q44 0 81.5 25z" />
    <glyph glyph-name="divide" unicode="&#xf7;" horiz-adv-x="534" 
d="M220 431.5q-21 20.5 -21 50.5q0 29 21 49.5t50 20.5t50 -20.5t21 -49.5q0 -30 -21 -50.5t-50 -20.5t-50 20.5zM461 355v-85h-390v85h390zM220 91.5q-21 20.5 -21 50.5q0 29 21 49.5t50 20.5t50 -20.5t21 -49.5q0 -30 -21 -50.5t-50 -20.5t-50 20.5z" />
    <glyph glyph-name="ugrave" unicode="&#xf9;" horiz-adv-x="598" 
d="M222 754l200 -117l-40 -69l-200 117zM133 39.5q-48 51.5 -48 136.5v324h79v-317q0 -54 27 -86.5t86 -32.5q65 0 103.5 37.5t38.5 104.5v294h79v-500h-79v43q0 10 -7 10q-6 0 -11 -5q-7 -5 -27 -22t-47 -27.5t-61 -10.5q-85 0 -133 51.5z" />
    <glyph glyph-name="uacute" unicode="&#xfa;" horiz-adv-x="598" 
d="M382 754l40 -69l-200 -117l-40 69zM133 39.5q-48 51.5 -48 136.5v324h79v-317q0 -54 27 -86.5t86 -32.5q65 0 103.5 37.5t38.5 104.5v294h79v-500h-79v43q0 10 -7 10q-6 0 -11 -5q-7 -5 -27 -22t-47 -27.5t-61 -10.5q-85 0 -133 51.5z" />
    <glyph glyph-name="ucircumflex" unicode="&#xfb;" horiz-adv-x="598" 
d="M291 757l176 -117l-47 -62l-129 86l-127 -86l-47 62zM133 39.5q-48 51.5 -48 136.5v324h79v-317q0 -54 27 -86.5t86 -32.5q65 0 103.5 37.5t38.5 104.5v294h79v-500h-79v43q0 10 -7 10q-6 0 -11 -5q-7 -5 -27 -22t-47 -27.5t-61 -10.5q-85 0 -133 51.5z" />
    <glyph glyph-name="udieresis" unicode="&#xfc;" horiz-adv-x="598" 
d="M132 609.5q-21 20.5 -21 50.5q0 29 21 49.5t50 20.5t50 -20.5t21 -49.5q0 -30 -21 -50.5t-50 -20.5t-50 20.5zM350 609.5q-21 20.5 -21 50.5q0 29 21 49.5t50 20.5t50 -20.5t21 -49.5q0 -30 -21 -50.5t-50 -20.5t-50 20.5zM133 39.5q-48 51.5 -48 136.5v324h79v-317
q0 -54 27 -86.5t86 -32.5q65 0 103.5 37.5t38.5 104.5v294h79v-500h-79v43q0 10 -7 10q-6 0 -11 -5q-7 -5 -27 -22t-47 -27.5t-61 -10.5q-85 0 -133 51.5z" />
    <glyph glyph-name="yacute" unicode="&#xfd;" horiz-adv-x="597" 
d="M384 754l40 -69l-200 -117l-40 69zM205.5 -275.5q-44.5 21.5 -70.5 58t-26 80.5q0 48 20.5 80.5t61.5 57.5q-44 10 -75 54t-31 121v324h79v-317q0 -53 25.5 -86t77.5 -33q69 0 110 37.5t41 104.5v294h79v-596q0 -61 -26.5 -106.5t-70.5 -70t-96 -24.5q-54 0 -98.5 21.5z
M386.5 -189.5q31.5 30.5 31.5 77.5v162q-36 -43 -107 -62q-121 -35 -121 -113q0 -41 33 -68t80 -27q52 0 83.5 30.5z" />
    <glyph glyph-name="Aogonek" unicode="&#x104;" horiz-adv-x="708" 
d="M616 -182q-23 -19 -53 -19q-40 0 -68 23t-28 63q0 36 26 69t55 46l-53 162h-301l-53 -162h-86l245 755h89l245 -755h-36q-28 -17 -47.5 -43.5t-19.5 -51.5q0 -19 11 -29t25 -10q20 0 35 22l51 -19q-14 -32 -37 -51zM354 622q-3 9 -10 9t-10 -9l-114 -379h249z" />
    <glyph glyph-name="aogonek" unicode="&#x105;" horiz-adv-x="607" 
d="M485 -182q-23 -19 -53 -19q-40 0 -68 23t-28 63q0 36 26 69t55 46v41v4q0 16 -9 14q-3 -1 -24 -20.5t-54 -35t-80 -15.5q-54 0 -98.5 22.5t-70.5 63.5t-26 94q0 45 25.5 84.5t74.5 62.5q-23 35 -23 67q0 36 22.5 65t61.5 45.5t87 16.5q81 0 135 -44.5t54 -138.5v-326h-25
q-28 -17 -47.5 -43.5t-19.5 -51.5q0 -19 11 -29t25 -10q20 0 35 22l51 -19q-14 -32 -37 -51zM382 412q-34 26 -82 26q-45 0 -67.5 -19.5t-22.5 -47.5q0 -20 11 -36q9 2 31 2h165q-1 49 -35 75zM276 268q-56 0 -96 -29.5t-40 -71.5q0 -46 38.5 -74.5t95.5 -28.5q38 0 70.5 14
t52.5 37.5t20 51.5v101h-141z" />
    <glyph glyph-name="Cacute" unicode="&#x106;" horiz-adv-x="863" 
d="M532 992l40 -69l-200 -117l-40 69zM253.5 43.5q-83.5 51.5 -131 140t-47.5 194.5q0 104 49.5 192.5t133.5 140t183 51.5q80 0 151 -34.5t122 -95.5t74 -139h-91q-31 84 -101 136t-155 52q-75 0 -138.5 -41t-100.5 -110.5t-37 -151.5q0 -84 36 -153.5t99 -110.5t141 -41
q85 0 155 52t101 136h91q-23 -78 -74 -139t-122 -95.5t-151 -34.5q-104 0 -187.5 51.5z" />
    <glyph glyph-name="cacute" unicode="&#x107;" 
d="M398 754l40 -69l-200 -117l-40 69zM182.5 22.5q-57.5 34.5 -90 94t-32.5 133.5q0 71 33.5 131t91 95.5t125.5 35.5q82 0 148 -52t90 -133h-90q-20 49 -59.5 78.5t-88.5 29.5q-45 0 -82.5 -25t-59.5 -67.5t-22 -92.5t22 -92.5t59.5 -67.5t82.5 -25q49 0 89 29.5t59 78.5
h90q-24 -81 -89.5 -133t-148.5 -52q-70 0 -127.5 34.5z" />
    <glyph glyph-name="Ccaron" unicode="&#x10c;" horiz-adv-x="863" 
d="M570 980l47 -62l-176 -117l-174 117l47 62l127 -86zM253.5 43.5q-83.5 51.5 -131 140t-47.5 194.5q0 104 49.5 192.5t133.5 140t183 51.5q80 0 151 -34.5t122 -95.5t74 -139h-91q-31 84 -101 136t-155 52q-75 0 -138.5 -41t-100.5 -110.5t-37 -151.5q0 -84 36 -153.5
t99 -110.5t141 -41q85 0 155 52t101 136h91q-23 -78 -74 -139t-122 -95.5t-151 -34.5q-104 0 -187.5 51.5z" />
    <glyph glyph-name="ccaron" unicode="&#x10d;" 
d="M436 742l47 -62l-176 -117l-174 117l47 62l127 -86zM182.5 22.5q-57.5 34.5 -90 94t-32.5 133.5q0 71 33.5 131t91 95.5t125.5 35.5q82 0 148 -52t90 -133h-90q-20 49 -59.5 78.5t-88.5 29.5q-45 0 -82.5 -25t-59.5 -67.5t-22 -92.5t22 -92.5t59.5 -67.5t82.5 -25
q49 0 89 29.5t59 78.5h90q-24 -81 -89.5 -133t-148.5 -52q-70 0 -127.5 34.5z" />
    <glyph glyph-name="Dcaron" unicode="&#x10e;" horiz-adv-x="729" 
d="M453 980l47 -62l-176 -117l-174 117l47 62l127 -86zM274 755q111 0 197.5 -50t134 -136.5t47.5 -191.5q0 -104 -47.5 -190t-134 -136.5t-197.5 -50.5h-174v755h174zM429 119.5q67 39.5 103 107.5t36 150q0 83 -36 151t-103 107.5t-155 39.5h-79q-5 0 -9 -4t-4 -9v-569
q0 -5 4 -9t9 -4h79q88 0 155 39.5z" />
    <glyph glyph-name="dcaron" unicode="&#x10f;" horiz-adv-x="683" 
d="M178 21.5q-55 33.5 -86.5 92.5t-31.5 133q0 72 33 133t88.5 96.5t119.5 35.5q47 0 85 -14.5t71 -52.5q3 -4 6 -4q5 0 5 10v304h79v-755h-79v52q0 7 -5 7t-10 -6q-24 -28 -67.5 -46.5t-84.5 -18.5q-68 0 -123 33.5zM690 543h-59l4 212h79zM390 88.5q38 23.5 60 64.5t22 93
q0 54 -21 97t-58 67.5t-83 24.5q-47 0 -84.5 -24t-59 -67t-21.5 -97q0 -50 20.5 -91.5t57 -66t82.5 -24.5q47 0 85 23.5z" />
    <glyph glyph-name="Eogonek" unicode="&#x118;" horiz-adv-x="620" 
d="M460.5 -43.5q-19.5 -26.5 -19.5 -51.5q0 -19 11 -29t25 -10q20 0 35 22l51 -19q-14 -32 -37 -51t-53 -19q-40 0 -68 23t-28 63q0 36 26 69t55 46h-358v755h382v-78h-287q-5 0 -9 -4t-4 -9v-184h300v-78h-300v-309q0 -5 4 -9t9 -4h385v-80h-72q-28 -17 -47.5 -43.5z" />
    <glyph glyph-name="eogonek" unicode="&#x119;" horiz-adv-x="607" 
d="M546 239h-401q3 -47 25 -86.5t57 -62t76 -22.5q54 0 89.5 24t59.5 69h88q-26 -70 -83 -116q-51 -46 -70 -78.5t-19 -61.5q0 -19 11 -29t25 -10q20 0 35 22l51 -19q-14 -32 -37 -51t-53 -19q-40 0 -68 23t-28 63q0 60 63 114q-32 -8 -64 -8q-66 0 -122 35t-88.5 95
t-32.5 130t32.5 130t88.5 95t122 35t122 -35t89 -95t33 -130q0 -7 -1 -12zM454 319q-6 20 -24.5 46.5t-50.5 47.5t-76 21q-52 0 -92.5 -34.5t-56.5 -90.5h290q13 0 10 10z" />
    <glyph glyph-name="Ecaron" unicode="&#x11a;" horiz-adv-x="620" 
d="M433 980l47 -62l-176 -117l-174 117l47 62l127 -86zM482 755v-78h-287q-5 0 -9 -4t-4 -9v-184h300v-78h-300v-309q0 -5 4 -9t9 -4h385v-80h-480v755h382z" />
    <glyph glyph-name="ecaron" unicode="&#x11b;" horiz-adv-x="607" 
d="M433 742l47 -62l-176 -117l-174 117l47 62l127 -86zM546 239h-401q3 -47 25 -86.5t57 -62t76 -22.5q54 0 89.5 24t59.5 69h88q-27 -75 -91.5 -122.5t-145.5 -47.5q-66 0 -122 35t-88.5 95t-32.5 130t32.5 130t88.5 95t122 35t122 -35t89 -95t33 -130q0 -7 -1 -12z
M454 319q-6 20 -24.5 46.5t-50.5 47.5t-76 21q-52 0 -92.5 -34.5t-56.5 -90.5h290q13 0 10 10z" />
    <glyph glyph-name="dotlessi" unicode="&#x131;" horiz-adv-x="272" 
d="M176 500v-500h-79v500h79z" />
    <glyph glyph-name="Lacute" unicode="&#x139;" horiz-adv-x="635" 
d="M244 992l40 -69l-200 -117l-40 69zM186 84q4 -4 9 -4h385v-80h-480v755h82v-662q0 -5 4 -9z" />
    <glyph glyph-name="lacute" unicode="&#x13a;" horiz-adv-x="279" 
d="M229 992l40 -69l-200 -117l-40 69zM179 755v-755h-79v755h79z" />
    <glyph glyph-name="Lcaron" unicode="&#x13d;" horiz-adv-x="635" 
d="M186 84q4 -4 9 -4h385v-80h-480v755h82v-662q0 -5 4 -9zM345 533h-63l4 222h83z" />
    <glyph glyph-name="lcaron" unicode="&#x13e;" horiz-adv-x="311" 
d="M179 755v-755h-79v755h79zM320 543h-59l4 212h79z" />
    <glyph glyph-name="Lslash" unicode="&#x141;" horiz-adv-x="729" 
d="M674 0h-480v305l-57 -26l-37 70l94 42v364h82v-328l164 73l37 -68l-201 -90v-249q0 -5 4 -9t9 -4h385v-80z" />
    <glyph glyph-name="lslash" unicode="&#x142;" horiz-adv-x="299" 
d="M189 0h-79v246l-47 -55l-63 48l110 127v389h79v-298l55 63l62 -47l-117 -136v-337z" />
    <glyph glyph-name="Nacute" unicode="&#x143;" horiz-adv-x="745" 
d="M445 992l40 -69l-200 -117l-40 69zM182 755l375 -599q2 -4 5 -3t3 5v597h80v-755h-82l-375 599q-2 4 -5 3t-3 -5v-597h-80v755h82z" />
    <glyph glyph-name="nacute" unicode="&#x144;" horiz-adv-x="601" 
d="M399 754l40 -69l-200 -117l-40 69zM179 500v-43q0 -10 6 -10q5 0 11 6q24 25 54.5 42t88.5 17q79 -1 128 -49t49 -129v-334h-79v317q0 51 -30 85t-82 34q-72 0 -109 -36.5t-37 -105.5v-294h-79v500h79z" />
    <glyph glyph-name="Ncaron" unicode="&#x147;" horiz-adv-x="745" 
d="M483 980l47 -62l-176 -117l-174 117l47 62l127 -86zM182 755l375 -599q2 -4 5 -3t3 5v597h80v-755h-82l-375 599q-2 4 -5 3t-3 -5v-597h-80v755h82z" />
    <glyph glyph-name="ncaron" unicode="&#x148;" horiz-adv-x="601" 
d="M437 742l47 -62l-176 -117l-174 117l47 62l127 -86zM179 500v-43q0 -10 6 -10q5 0 11 6q24 25 54.5 42t88.5 17q79 -1 128 -49t49 -129v-334h-79v317q0 51 -30 85t-82 34q-72 0 -109 -36.5t-37 -105.5v-294h-79v500h79z" />
    <glyph glyph-name="OE" unicode="&#x152;" horiz-adv-x="1295" 
d="M1255 0h-480v140q-55 -70 -136 -111t-173 -41q-106 0 -195.5 53t-142.5 142.5t-53 195.5t53 195.5t142.5 142.5t195.5 53q92 0 173 -41t136 -111v137h382v-78h-287q-5 0 -9 -4t-4 -9v-184h300v-78h-300v-309q0 -5 4 -9t9 -4h385v-80zM617 111q69 42 110 113t41 155
t-41 155t-110 113t-151 42t-151.5 -42t-110 -113t-40.5 -155t40.5 -155t110 -113t151.5 -42t151 42z" />
    <glyph glyph-name="oe" unicode="&#x153;" horiz-adv-x="1001" 
d="M950 239h-401q3 -47 25 -86.5t57 -62t76 -22.5q54 0 89.5 24t59.5 69h88q-27 -75 -91.5 -122.5t-145.5 -47.5q-61 0 -113.5 30.5t-86.5 82.5q-34 -53 -89 -84.5t-118 -31.5q-68 0 -125.5 35t-91 95.5t-33.5 131.5t33.5 131t91 95.5t125.5 35.5q63 0 117.5 -31t88.5 -84
q34 53 87 83.5t114 30.5q66 0 122 -35t89 -95t33 -130q0 -7 -1 -12zM381.5 90q37.5 25 59.5 67.5t22 92.5t-22 92.5t-59.5 67.5t-81.5 25q-45 0 -82.5 -25t-59.5 -67.5t-22 -92.5t22 -92.5t59.5 -67.5t82.5 -25q44 0 81.5 25zM858 319q-6 19 -24 46t-50.5 48t-76.5 21
q-52 0 -92.5 -34.5t-56.5 -90.5h290q13 0 10 10z" />
    <glyph glyph-name="Racute" unicode="&#x154;" horiz-adv-x="625" 
d="M395 992l40 -69l-200 -117l-40 69zM352 755q103 0 156 -52.5t53 -134.5q0 -53 -22.5 -92t-74.5 -74q-22 -15 -64 -39l-18 -11l181 -352h-91l-160 310q-46 -25 -112 -54q-10 -5 -18.5 -9t-14.5 -7v-240h-82v755h267zM410 458q39 27 54 53t15 60q0 46 -30.5 77t-85.5 31
h-186q-4 0 -7 -3t-3 -8v-337q130 51 243 127z" />
    <glyph glyph-name="racute" unicode="&#x155;" horiz-adv-x="403" 
d="M315 754l40 -69l-200 -117l-40 69zM180 500v-43q0 -5 2.5 -8.5t6.5 -3.5q5 0 10 5q50 50 131 50h48v-81h-79q-56 0 -87.5 -36t-31.5 -95v-288h-80v500h80z" />
    <glyph glyph-name="Rcaron" unicode="&#x158;" horiz-adv-x="625" 
d="M433 980l47 -62l-176 -117l-174 117l47 62l127 -86zM352 755q103 0 156 -52.5t53 -134.5q0 -53 -22.5 -92t-74.5 -74q-22 -15 -64 -39l-18 -11l181 -352h-91l-160 310q-46 -25 -112 -54q-10 -5 -18.5 -9t-14.5 -7v-240h-82v755h267zM410 458q39 27 54 53t15 60
q0 46 -30.5 77t-85.5 31h-186q-4 0 -7 -3t-3 -8v-337q130 51 243 127z" />
    <glyph glyph-name="rcaron" unicode="&#x159;" horiz-adv-x="403" 
d="M353 742l47 -62l-176 -117l-174 117l47 62l127 -86zM180 500v-43q0 -5 2.5 -8.5t6.5 -3.5q5 0 10 5q50 50 131 50h48v-81h-79q-56 0 -87.5 -36t-31.5 -95v-288h-80v500h80z" />
    <glyph glyph-name="Sacute" unicode="&#x15a;" horiz-adv-x="719" 
d="M461 992l40 -69l-200 -117l-40 69zM156.5 61q-76.5 70 -79.5 194h88q3 -95 58 -141.5t143 -46.5q87 0 141 33t54 96q0 41 -19 64.5t-63 41.5t-141 47q-89 28 -138 53.5t-74 65t-25 104.5q3 57 36 102t90 70.5t129 25.5q122 0 198 -65t80 -181h-89q0 79 -49.5 125
t-133.5 46q-75 0 -125.5 -33.5t-50.5 -100.5q0 -34 21.5 -57t67.5 -43t135 -50q90 -28 138.5 -52.5t72 -61.5t23.5 -96q0 -68 -37 -115.5t-100 -71t-141 -23.5q-133 0 -209.5 70z" />
    <glyph glyph-name="sacute" unicode="&#x15b;" horiz-adv-x="520" 
d="M355 754l40 -69l-200 -117l-40 69zM121.5 38q-56.5 47 -56.5 129h84q0 -51 34 -76t89 -25q44 0 71.5 17t27.5 52q0 22 -10.5 35t-35 23.5t-78.5 26.5q-63 20 -98.5 40.5t-51.5 46t-16 62.5q0 40 22.5 72.5t63 51t92.5 18.5q82 0 135 -43.5t56 -120.5h-86q0 41 -27.5 65
t-73.5 24q-40 0 -68 -17t-28 -51q0 -27 27.5 -44t100.5 -41q61 -20 94.5 -37.5t49.5 -42.5t16 -64q0 -72 -51.5 -110t-132.5 -38q-93 0 -149.5 47z" />
    <glyph glyph-name="Scaron" unicode="&#x160;" horiz-adv-x="719" 
d="M499 980l47 -62l-176 -117l-174 117l47 62l127 -86zM156.5 61q-76.5 70 -79.5 194h88q3 -95 58 -141.5t143 -46.5q87 0 141 33t54 96q0 41 -19 64.5t-63 41.5t-141 47q-89 28 -138 53.5t-74 65t-25 104.5q3 57 36 102t90 70.5t129 25.5q122 0 198 -65t80 -181h-89
q0 79 -49.5 125t-133.5 46q-75 0 -125.5 -33.5t-50.5 -100.5q0 -34 21.5 -57t67.5 -43t135 -50q90 -28 138.5 -52.5t72 -61.5t23.5 -96q0 -68 -37 -115.5t-100 -71t-141 -23.5q-133 0 -209.5 70z" />
    <glyph glyph-name="scaron" unicode="&#x161;" horiz-adv-x="520" 
d="M393 742l47 -62l-176 -117l-174 117l47 62l127 -86zM121.5 38q-56.5 47 -56.5 129h84q0 -51 34 -76t89 -25q44 0 71.5 17t27.5 52q0 22 -10.5 35t-35 23.5t-78.5 26.5q-63 20 -98.5 40.5t-51.5 46t-16 62.5q0 40 22.5 72.5t63 51t92.5 18.5q82 0 135 -43.5t56 -120.5h-86
q0 41 -27.5 65t-73.5 24q-40 0 -68 -17t-28 -51q0 -27 27.5 -44t100.5 -41q61 -20 94.5 -37.5t49.5 -42.5t16 -64q0 -72 -51.5 -110t-132.5 -38q-93 0 -149.5 47z" />
    <glyph glyph-name="Tcaron" unicode="&#x164;" horiz-adv-x="589" 
d="M424 980l47 -62l-176 -117l-174 117l47 62l127 -86zM249 673q4 -4 4 -9v-664h83v664q0 5 4 9t9 4h225v78h-559v-78h225q5 0 9 -4z" />
    <glyph glyph-name="tcaron" unicode="&#x165;" horiz-adv-x="407" 
d="M380 557h-59l4 198h79zM176 40.5q-41 40.5 -41 100.5v286h-90v73h90v155h79v-155h128v-73h-128v-286q0 -31 18.5 -47t44.5 -16h65v-78h-65q-60 0 -101 40.5z" />
    <glyph glyph-name="Utilde" unicode="&#x168;" horiz-adv-x="733" 
d="M232.5 944.5q35.5 25.5 74.5 25.5q20 0 38 -8.5t41 -24.5q18 -13 31.5 -19.5t25.5 -6.5q21 0 34 13.5t31 43.5l70 -35q-37 -59 -66 -80t-65 -21q-25 0 -43 8t-40 23q-20 12 -32.5 18t-27.5 6q-39 0 -73 -62l-60 37q26 57 61.5 82.5zM643 755v-478q0 -86 -36 -150.5
t-99 -99.5t-141 -35q-79 0 -142 35t-99 99.5t-36 150.5v478h82v-478q0 -96 54.5 -150t140.5 -54t140 54t54 150v478h82z" />
    <glyph glyph-name="utilde" unicode="&#x169;" horiz-adv-x="598" 
d="M156.5 706.5q35.5 25.5 74.5 25.5q20 0 38 -8.5t41 -24.5q18 -13 31.5 -19.5t25.5 -6.5q21 0 34 13.5t31 43.5l70 -35q-37 -59 -66 -80t-65 -21q-25 0 -43 8t-40 23q-20 12 -32.5 18t-27.5 6q-39 0 -73 -62l-60 37q26 57 61.5 82.5zM133 39.5q-48 51.5 -48 136.5v324h79
v-317q0 -54 27 -86.5t86 -32.5q65 0 103.5 37.5t38.5 104.5v294h79v-500h-79v43q0 10 -7 10q-6 0 -11 -5q-7 -5 -27 -22t-47 -27.5t-61 -10.5q-85 0 -133 51.5z" />
    <glyph glyph-name="Uring" unicode="&#x16e;" horiz-adv-x="733" 
d="M298 827q-27 27 -27 66q0 38 27 64.5t66 26.5q38 0 65 -27t27 -64q0 -39 -27 -66t-65 -27q-39 0 -66 27zM396 860q13 13 13 33q0 19 -13 31.5t-32 12.5q-20 0 -33 -12.5t-13 -31.5q0 -20 13 -33t33 -13q19 0 32 13zM643 755v-478q0 -86 -36 -150.5t-99 -99.5t-141 -35
q-79 0 -142 35t-99 99.5t-36 150.5v478h82v-478q0 -96 54.5 -150t140.5 -54t140 54t54 150v478h82z" />
    <glyph glyph-name="uring" unicode="&#x16f;" horiz-adv-x="600" 
d="M237 584q-27 27 -27 66q0 38 27 64.5t66 26.5q38 0 65 -27t27 -64q0 -39 -27 -66t-65 -27q-39 0 -66 27zM335 617q13 13 13 33q0 19 -13 31.5t-32 12.5q-20 0 -33 -12.5t-13 -31.5q0 -20 13 -33t33 -13q19 0 32 13zM133 39.5q-48 51.5 -48 136.5v324h79v-317
q0 -54 27 -86.5t86 -32.5q65 0 103.5 37.5t38.5 104.5v294h79v-500h-79v43q0 10 -7 10q-6 0 -11 -5q-7 -5 -27 -22t-47 -27.5t-61 -10.5q-85 0 -133 51.5z" />
    <glyph glyph-name="Zacute" unicode="&#x179;" horiz-adv-x="658" 
d="M427 992l40 -69l-200 -117l-40 69zM489 658q2 2 2 7q0 8 -8 8h-419v82h539v-82l-434 -576q-2 -2 -2 -7q0 -8 8 -8h428v-82h-548v82z" />
    <glyph glyph-name="zacute" unicode="&#x17a;" horiz-adv-x="504" 
d="M358 754l40 -69l-200 -117l-40 69zM339 412q2 2 2 7q0 8 -8 8h-273v73h389v-75l-283 -335q-3 -4 -3 -7q0 -4 3 -6t6 -2h277v-75h-394v76z" />
    <glyph glyph-name="Zdotaccent" unicode="&#x17b;" horiz-adv-x="658" 
d="M286 852.5q-21 20.5 -21 50.5q0 29 21 49.5t50 20.5t50 -20.5t21 -49.5q0 -30 -21 -50.5t-50 -20.5t-50 20.5zM489 658q2 2 2 7q0 8 -8 8h-419v82h539v-82l-434 -576q-2 -2 -2 -7q0 -8 8 -8h428v-82h-548v82z" />
    <glyph glyph-name="zdotaccent" unicode="&#x17c;" horiz-adv-x="504" 
d="M217 614.5q-21 20.5 -21 50.5q0 29 21 49.5t50 20.5t50 -20.5t21 -49.5q0 -30 -21 -50.5t-50 -20.5t-50 20.5zM339 412q2 2 2 7q0 8 -8 8h-273v73h389v-75l-283 -335q-3 -4 -3 -7q0 -4 3 -6t6 -2h277v-75h-394v76z" />
    <glyph glyph-name="Zcaron" unicode="&#x17d;" horiz-adv-x="658" 
d="M465 980l47 -62l-176 -117l-174 117l47 62l127 -86zM489 658q2 2 2 7q0 8 -8 8h-419v82h539v-82l-434 -576q-2 -2 -2 -7q0 -8 8 -8h428v-82h-548v82z" />
    <glyph glyph-name="zcaron" unicode="&#x17e;" horiz-adv-x="504" 
d="M396 742l47 -62l-176 -117l-174 117l47 62l127 -86zM339 412q2 2 2 7q0 8 -8 8h-273v73h389v-75l-283 -335q-3 -4 -3 -7q0 -4 3 -6t6 -2h277v-75h-394v76z" />
    <glyph glyph-name="gravecomb" unicode="&#x300;" horiz-adv-x="0" 
d="M-340 754l200 -117l-40 -69l-200 117z" />
    <glyph glyph-name="acutecomb" unicode="&#x301;" horiz-adv-x="0" 
d="M-215 754l40 -69l-200 -117l-40 69z" />
    <glyph glyph-name="uni0302" unicode="&#x302;" horiz-adv-x="0" 
d="M-306 757l176 -117l-47 -62l-129 86l-127 -86l-47 62z" />
    <glyph glyph-name="tildecomb" unicode="&#x303;" horiz-adv-x="0" 
d="M-440.5 706.5q35.5 25.5 74.5 25.5q20 0 38 -8.5t41 -24.5q18 -13 31.5 -19.5t25.5 -6.5q21 0 34 13.5t31 43.5l70 -35q-37 -59 -66 -80t-65 -21q-25 0 -43 8t-40 23q-20 12 -32.5 18t-27.5 6q-39 0 -73 -62l-60 37q26 57 61.5 82.5z" />
    <glyph glyph-name="uni0307" unicode="&#x307;" horiz-adv-x="0" 
d="M-343 614.5q-21 20.5 -21 50.5q0 29 21 49.5t50 20.5t50 -20.5t21 -49.5q0 -30 -21 -50.5t-50 -20.5t-50 20.5z" />
    <glyph glyph-name="uni0308" unicode="&#x308;" horiz-adv-x="0" 
d="M-465 609.5q-21 20.5 -21 50.5q0 29 21 49.5t50 20.5t50 -20.5t21 -49.5q0 -30 -21 -50.5t-50 -20.5t-50 20.5zM-247 609.5q-21 20.5 -21 50.5q0 29 21 49.5t50 20.5t50 -20.5t21 -49.5q0 -30 -21 -50.5t-50 -20.5t-50 20.5z" />
    <glyph glyph-name="uni030A" unicode="&#x30a;" horiz-adv-x="0" 
d="M-363 598q-27 27 -27 66q0 38 27 64.5t66 26.5q38 0 65 -27t27 -64q0 -39 -27 -66t-65 -27q-39 0 -66 27zM-265 631q13 13 13 33q0 19 -13 31.5t-32 12.5q-20 0 -33 -12.5t-13 -31.5q0 -20 13 -33t33 -13q19 0 32 13z" />
    <glyph glyph-name="uni030C" unicode="&#x30c;" horiz-adv-x="0" 
d="M-177 742l47 -62l-176 -117l-174 117l47 62l127 -86z" />
    <glyph glyph-name="uni0328" unicode="&#x328;" horiz-adv-x="0" 
d="M-218 -182q-23 -19 -53 -19q-40 0 -68 23t-28 63q0 36 26 69t55 46h50q-28 -17 -47.5 -43.5t-19.5 -51.5q0 -19 11 -29t25 -10q20 0 35 22l51 -19q-14 -32 -37 -51z" />
    <glyph glyph-name="endash" unicode="&#x2013;" horiz-adv-x="547" 
d="M477 310v-73h-407v73h407z" />
    <glyph glyph-name="emdash" unicode="&#x2014;" horiz-adv-x="697" 
d="M627 310v-73h-557v73h557z" />
    <glyph glyph-name="quoteleft" unicode="&#x2018;" horiz-adv-x="230" 
d="M132 501l-82 18l72 246l58 -9z" />
    <glyph glyph-name="quoteright" unicode="&#x2019;" horiz-adv-x="230" 
d="M98 765l82 -18l-72 -246l-58 9z" />
    <glyph glyph-name="quotesinglbase" unicode="&#x201a;" horiz-adv-x="234" 
d="M114 110l96 -38l-120 -230l-66 25z" />
    <glyph glyph-name="quotedblleft" unicode="&#x201c;" horiz-adv-x="360" 
d="M122 501l-82 18l72 246l58 -9zM272 501l-82 18l72 246l58 -9z" />
    <glyph glyph-name="quotedblright" unicode="&#x201d;" horiz-adv-x="380" 
d="M98 765l82 -18l-72 -246l-58 9zM248 765l82 -18l-72 -246l-58 9z" />
    <glyph glyph-name="quotedblbase" unicode="&#x201e;" horiz-adv-x="438" 
d="M94 65l82 -18l-72 -246l-58 9zM244 65l82 -18l-72 -246l-58 9z" />
    <glyph glyph-name="dagger" unicode="&#x2020;" horiz-adv-x="456" 
d="M190 470h-130v73h130v207h77v-207h129v-73h-129v-564h-77v564z" />
    <glyph glyph-name="daggerdbl" unicode="&#x2021;" horiz-adv-x="456" 
d="M267 193h129v-73h-129v-214h-77v214h-130v73h130v277h-130v73h130v207h77v-207h129v-73h-129v-277z" />
    <glyph glyph-name="bullet" unicode="&#x2022;" horiz-adv-x="348" 
d="M100.5 181.5q-30.5 30.5 -30.5 73.5t30.5 73t73.5 30t73.5 -30t30.5 -73t-30.5 -73.5t-73.5 -30.5t-73.5 30.5z" />
    <glyph glyph-name="ellipsis" unicode="&#x2026;" horiz-adv-x="681" 
d="M73 11.5q-21 20.5 -21 50.5q0 29 21 49.5t50 20.5t50 -20.5t21 -49.5q0 -30 -21 -50.5t-50 -20.5t-50 20.5zM294 11.5q-21 20.5 -21 50.5q0 29 21 49.5t50 20.5t50 -20.5t21 -49.5q0 -30 -21 -50.5t-50 -20.5t-50 20.5zM508 11.5q-21 20.5 -21 50.5q0 29 21 49.5t50 20.5
t50 -20.5t21 -49.5q0 -30 -21 -50.5t-50 -20.5t-50 20.5z" />
    <glyph glyph-name="perthousand" unicode="&#x2030;" horiz-adv-x="1384" 
d="M324 716q42 -25 66.5 -68t24.5 -94t-24.5 -94t-66.5 -68.5t-92 -25.5q-49 0 -91 25.5t-66.5 68.5t-24.5 94t24.5 94t66.5 68t91 25q50 0 92 -25zM265 17l357 722l72 -29l-357 -722zM305 475q30 33 30 79q0 45 -30 78t-73 33q-42 0 -72 -33t-30 -78q0 -46 30 -79t72 -33
q43 0 73 33zM822 338q42 -25 66.5 -68t24.5 -94t-24.5 -94t-66.5 -68.5t-92 -25.5q-49 0 -91 25.5t-66.5 68.5t-24.5 94t24.5 94t66.5 68t91 25q50 0 92 -25zM1243 338q42 -25 66.5 -68t24.5 -94t-24.5 -94t-66.5 -68.5t-92 -25.5q-49 0 -91 25.5t-66.5 68.5t-24.5 94
t24.5 94t66.5 68t91 25q50 0 92 -25zM803 97q30 33 30 79q0 45 -30 78t-73 33q-42 0 -72 -33t-30 -78q0 -46 30 -79t72 -33q43 0 73 33zM1224 97q30 33 30 79q0 45 -30 78t-73 33q-42 0 -72 -33t-30 -78q0 -46 30 -79t72 -33q43 0 73 33z" />
    <glyph glyph-name="minute" unicode="&#x2032;" horiz-adv-x="219" 
d="M139 725v-289h-79v289h79z" />
    <glyph glyph-name="guilsinglleft" unicode="&#x2039;" horiz-adv-x="262" 
d="M30 248l140 211l62 -47l-109 -164l106 -157l-62 -47z" />
    <glyph glyph-name="guilsinglright" unicode="&#x203a;" horiz-adv-x="262" 
d="M30 412l62 47l140 -211l-137 -204l-62 47l106 157z" />
    <glyph glyph-name="Euro" unicode="&#x20ac;" horiz-adv-x="861" 
d="M598.5 118q68.5 51 98.5 132h89q-22 -75 -72 -135t-119.5 -93.5t-147.5 -33.5q-81 0 -150.5 33.5t-118.5 92.5t-72 135h-76v73h62q-2 28 -2 43q0 14 2 40h-62v73h77q23 76 73 135.5t119.5 93t147.5 33.5q79 0 148 -34t119 -93.5t72 -135.5h-89q-30 82 -98.5 133
t-151.5 51t-151 -50.5t-99 -132.5h249v-73h-267q-2 -26 -2 -40q0 -22 3 -43h266v-73h-249q31 -82 98 -132t152 -50q83 0 151.5 51z" />
    <glyph glyph-name="trademark" unicode="&#x2122;" horiz-adv-x="777" 
d="M311 755v-70h-100v-294h-71v294h-100v70h271zM451 755l81 -171l116 171h89v-364h-69v268q0 2 -3 -2l-101 -139l59 -127h-72l-123 266q-2 4 -2 2v-268h-70v364h95z" />
    <glyph glyph-name="minus" unicode="&#x2212;" horiz-adv-x="611" 
d="M506 359v-80h-401v80h401z" />
    <glyph glyph-name="notequal" unicode="&#x2260;" horiz-adv-x="614" 
d="M328 261h178v-82h-222l-84 -157l-69 40l63 117h-89v82h133l57 106h-190v80h232l83 154l69 -40l-61 -114h78v-80h-121z" />
    <glyph glyph-name="K.ss01" horiz-adv-x="649" 
d="M182 755v-471l347 471h94l-230 -320l231 -435h-94l-187 367l-161 -214v-153h-82v755h82z" />
    <glyph glyph-name="Y.ss01" horiz-adv-x="639" 
d="M10 755h93l208 -480q3 -6 9 -6q5 0 8 6l207 480h94l-268 -597v-158h-83v158z" />
    <glyph glyph-name="f.ss01" horiz-adv-x="429" 
d="M146 346.5q15 35.5 42 62.5q6 6 6 11q0 7 -9 7h-120v73h66v111q0 62 41.5 103t102.5 41h61v-80h-61q-26 0 -45 -16.5t-19 -47.5v-111h153v-73h-9q-38 0 -71.5 -22.5t-53.5 -59t-20 -76.5v-269h-79v269q0 42 15 77.5z" />
    <glyph glyph-name="j.ss01" horiz-adv-x="311" 
d="M125 611.5q-21 20.5 -21 50.5q0 29 21 49.5t50 20.5t50 -20.5t21 -49.5q0 -30 -21 -50.5t-50 -20.5t-50 20.5zM212 -170q0 -51 -38 -86t-94 -35t-95.5 35t-39.5 86q0 47 29.5 76.5t83.5 56.5q39 22 57 39.5t18 45.5v452h79v-670zM52 -118q-27 -16 -27 -44q0 -20 16 -34.5
t39 -14.5q22 0 37.5 13.5t15.5 35.5v97q-22 -18 -81 -53z" />
    <glyph glyph-name="zero.osf" horiz-adv-x="619" 
d="M434.5 476.5q57.5 -35.5 91 -95.5t33.5 -131t-33.5 -131.5t-91 -95.5t-124.5 -35q-68 0 -125.5 35t-91 95.5t-33.5 131.5t33.5 131t91 95.5t125.5 35.5q67 0 124.5 -35.5zM391.5 90q37.5 25 59.5 67.5t22 92.5t-22 92.5t-59.5 67.5t-81.5 25q-45 0 -82.5 -25t-59.5 -67.5
t-22 -92.5t22 -92.5t59.5 -67.5t82.5 -25q44 0 81.5 25z" />
    <glyph glyph-name="one.osf" horiz-adv-x="310" 
d="M10 421v79h223v-500h-82v421h-141z" />
    <glyph glyph-name="two.osf" horiz-adv-x="515" 
d="M123 108l46 23q73 36 112.5 60t65.5 57t26 77q0 47 -32 80.5t-79 33.5t-80 -33.5t-33 -80.5v-16h-79v16q0 53 26 97t70 69.5t96 25.5t96.5 -25.5t70.5 -69.5t26 -97q0 -50 -23.5 -86.5t-58 -60.5t-90.5 -55q-8 -5 -18.5 -10.5t-22.5 -12.5q-8 -5 -8 -12q0 -10 13 -10h207
v-78h-387v78q24 14 56 30z" />
    <glyph glyph-name="three.osf" horiz-adv-x="532" 
d="M150 -203.5q-51 29.5 -80.5 80.5t-29.5 111h80q0 -38 19 -70.5t51.5 -51.5t70.5 -19t70.5 19t51.5 51.5t19 70.5t-19 70.5t-51.5 51.5t-70.5 19h-82v80h82q47 0 80.5 33.5t33.5 80.5t-33.5 80.5t-80.5 33.5t-80.5 -33.5t-33.5 -80.5h-80q0 53 26 97t70.5 70t97.5 26
t97 -26t70 -70t26 -97q0 -45 -19 -84t-53 -67q46 -30 73 -78.5t27 -105.5q0 -60 -29.5 -111t-80.5 -80.5t-111 -29.5t-111 29.5z" />
    <glyph glyph-name="four.osf" horiz-adv-x="531" 
d="M45 -64l141 564h79l-117 -471q-1 -2 -1 -6q0 -8 11 -8h149v240h79v-240h100v-79h-100v-161h-79v161h-262z" />
    <glyph glyph-name="five.osf" 
d="M434 227.5q57 -33.5 90.5 -91t33.5 -124.5q0 -68 -33.5 -125t-90.5 -90.5t-125 -33.5t-125 33.5t-90.5 90.5t-33.5 125h80q0 -46 23 -85t61.5 -61.5t84.5 -22.5t84.5 22.5t61.5 61.5t23 85t-23 84.5t-61.5 61.5t-84.5 23q-38 0 -70.5 -13t-53.5 -37h-97l82 369h319v-80
h-255l-41 -164q-1 -2 -1 -6q0 -9 9 -9q3 0 35 10t73 10q68 0 125 -33.5z" />
    <glyph glyph-name="six.osf" 
d="M184 21.5q-57 33.5 -90.5 90.5t-33.5 125q0 38 10 70.5t32 67.5l222 350h91l-142 -224q-2 -2 -2 -7q0 -9 13 -9q81 2 143 -29t96.5 -88t34.5 -131q0 -68 -33.5 -125t-90.5 -90.5t-125 -33.5t-125 33.5zM393.5 90.5q38.5 22.5 61.5 61.5t23 85t-23 84.5t-61.5 61.5
t-84.5 23t-84.5 -23t-61.5 -61.5t-23 -84.5t23 -85t61.5 -61.5t84.5 -22.5t84.5 22.5z" />
    <glyph glyph-name="seven.osf" horiz-adv-x="494" 
d="M377 412q0 9 -12 9h-335v79h444v-79l-312 -646h-91l304 630q2 6 2 7z" />
    <glyph glyph-name="eight.osf" horiz-adv-x="621" 
d="M185 21.5q-58 33.5 -91.5 91.5t-33.5 126q0 70 36 129t96 92q-22 22 -34 51.5t-12 61.5q0 45 22 82.5t60 59.5t83 22q44 0 82 -22t60 -59.5t22 -82.5q0 -33 -12 -62t-34 -51q60 -33 96 -92t36 -129q0 -68 -33.5 -126t-91 -91.5t-125.5 -33.5t-126 33.5zM370 514.5
q24 24.5 24 58.5q0 35 -24.5 59.5t-58.5 24.5t-59 -24.5t-25 -59.5q0 -34 24.5 -58.5t59.5 -24.5t59 24.5zM396 91q39 23 62 62.5t23 85.5t-22.5 85t-61.5 62t-86 23q-48 0 -87 -23t-61.5 -62t-22.5 -85t23 -85.5t62 -62.5t86 -23q46 0 85 23z" />
    <glyph glyph-name="nine.osf" 
d="M337 10q0 9 -13 9q-81 0 -143.5 31t-96.5 87t-34 130q0 68 33.5 125t90.5 90.5t125 33.5t125 -33.5t90.5 -90.5t33.5 -125q0 -38 -10 -70.5t-32 -67.5l-222 -350h-91l142 224q2 2 2 7zM383.5 121q38.5 23 61.5 61.5t23 84.5t-23 85t-61.5 61.5t-84.5 22.5t-84.5 -22.5
t-61.5 -61.5t-23 -85t23 -84.5t61.5 -61.5t84.5 -23t84.5 23z" />
    <glyph glyph-name="zero.ss01" horiz-adv-x="742" 
d="M522.5 691.5q67.5 -48.5 106 -134.5t38.5 -193t-38.5 -193t-106 -134.5t-151.5 -48.5t-151.5 48.5t-106 134.5t-38.5 193t38.5 193t106 134.5t151.5 48.5t151.5 -48.5zM480 104.5q48 38.5 75 106t27 153.5t-27 154t-75 106.5t-109 38.5t-108.5 -38.5t-74.5 -106.5
t-27 -154t27 -153.5t74.5 -106t108.5 -38.5t109 38.5z" />
    <glyph glyph-name="backslash.case" horiz-adv-x="357" 
d="M332 -50l-76 -16l-235 827l76 16z" />
    <glyph glyph-name="periodcentered.case" horiz-adv-x="322" 
d="M111 304.5q-21 20.5 -21 50.5q0 29 21 49.5t50 20.5t50 -20.5t21 -49.5q0 -30 -21 -50.5t-50 -20.5t-50 20.5z" />
    <glyph glyph-name="bullet.case" horiz-adv-x="348" 
d="M100.5 281.5q-30.5 30.5 -30.5 73.5t30.5 73t73.5 30t73.5 -30t30.5 -73t-30.5 -73.5t-73.5 -30.5t-73.5 30.5z" />
    <glyph glyph-name="slash.case" horiz-adv-x="357" 
d="M21 -50l235 827l76 -16l-235 -827z" />
    <glyph glyph-name="braceleft.case" horiz-adv-x="327" 
d="M104.5 435q23.5 21 23.5 68v162q0 78 13.5 113t48 46t110.5 11v-59q-42 0 -62 -9t-26.5 -29.5t-6.5 -60.5v-134q0 -54 -4 -82.5t-19.5 -49.5t-49.5 -37q32 -17 47.5 -38.5t20.5 -50.5t5 -80v-133q0 -41 6 -61t26 -29t63 -9v-59q-76 0 -110.5 11t-48 46t-13.5 113v160
q0 47 -23.5 68t-74.5 28v67q51 7 74.5 28z" />
    <glyph glyph-name="braceright.case" horiz-adv-x="327" 
d="M222.5 312q-23.5 -21 -23.5 -68v-160q0 -78 -13.5 -113t-48 -46t-110.5 -11v59q43 0 63 9t26 29t6 61v133q0 51 4.5 80t19.5 50.5t47 38.5q-33 15 -48 36.5t-19 50t-4 82.5v134q0 40 -6.5 60.5t-26.5 29.5t-62 9v59q76 0 110.5 -11t48 -46t13.5 -113v-162q0 -47 23.5 -68
t74.5 -28v-67q-51 -7 -74.5 -28z" />
    <glyph glyph-name="bracketleft.case" horiz-adv-x="333" 
d="M177 781v-791h129v-62h-206v913h206v-60h-129z" />
    <glyph glyph-name="bracketright.case" horiz-adv-x="333" 
d="M156 -10v790h-129v61h206v-913h-206v62h129z" />
    <glyph glyph-name="parenleft.case" horiz-adv-x="324" 
d="M97.5 143q-47.5 120 -47.5 251q0 116 37.5 225t108.5 199l65 -37q-65 -84 -98.5 -185t-33.5 -210q0 -117 43 -224.5t122 -190.5l-59 -42q-90 94 -137.5 214z" />
    <glyph glyph-name="parenright.case" horiz-adv-x="324" 
d="M152 161.5q43 107.5 43 224.5q0 109 -33.5 210t-98.5 185l65 37q71 -90 108.5 -199t37.5 -225q0 -131 -47.5 -251t-137.5 -214l-59 42q79 83 122 190.5z" />
    <glyph glyph-name="emdash.case" horiz-adv-x="697" 
d="M627 410v-73h-557v73h557z" />
    <glyph glyph-name="endash.case" horiz-adv-x="547" 
d="M477 410v-73h-407v73h407z" />
    <glyph glyph-name="hyphen.case" horiz-adv-x="437" 
d="M367 410v-73h-297v73h297z" />
    <glyph glyph-name="guillemotleft.case" horiz-adv-x="462" 
d="M30 348l140 211l62 -47l-109 -164l106 -157l-62 -47zM230 348l140 211l62 -47l-109 -164l106 -157l-62 -47z" />
    <glyph glyph-name="guillemotright.case" horiz-adv-x="462" 
d="M30 512l62 47l140 -211l-137 -204l-62 47l106 157zM230 512l62 47l140 -211l-137 -204l-62 47l106 157z" />
    <glyph glyph-name="guilsinglleft.case" horiz-adv-x="262" 
d="M30 348l140 211l62 -47l-109 -164l106 -157l-62 -47z" />
    <glyph glyph-name="guilsinglright.case" horiz-adv-x="262" 
d="M30 512l62 47l140 -211l-137 -204l-62 47l106 157z" />
    <glyph glyph-name="cent.osf" 
d="M399 94.5q40 29.5 59 78.5h90q-20 -71 -73.5 -120t-123.5 -61v-84h-79v83q-61 9 -109.5 45t-75.5 91.5t-27 122.5q0 64 28 120t76.5 93t107.5 46v88h79v-89q69 -12 122.5 -61t74.5 -120h-90q-20 49 -59.5 78.5t-88.5 29.5q-45 0 -82.5 -25t-59.5 -67.5t-22 -92.5
t22 -92.5t59.5 -67.5t82.5 -25q49 0 89 29.5z" />
    <glyph glyph-name="currency.osf" horiz-adv-x="657" 
d="M519 99l58 -58l-56 -56l-58 58q-61 -43 -133 -43q-74 0 -135 44l-59 -59l-56 56l59 59q-47 68 -47 150q0 83 48 150l-60 60l56 56l60 -60q60 44 134 44q71 0 132 -43l59 59l56 -56l-59 -59q49 -66 49 -151q0 -84 -48 -151zM407.5 97.5q35.5 23.5 56.5 64t21 88.5
q0 47 -21 87.5t-56.5 64.5t-77.5 24q-43 0 -78.5 -24t-56.5 -64.5t-21 -87.5q0 -48 21 -88.5t56.5 -64t78.5 -23.5q42 0 77.5 23.5z" />
    <glyph glyph-name="dollar.osf" horiz-adv-x="520" 
d="M389.5 245.5q33.5 -17.5 49.5 -42.5t16 -64q0 -65 -42.5 -102.5t-111.5 -44.5v-84h-82v87q-72 13 -113 58t-41 114h84q0 -51 34 -76t89 -25q44 0 71.5 17t27.5 52q0 22 -10.5 35t-35 23.5t-78.5 26.5q-66 22 -102 43t-51 48t-13 68q2 49 40 84t98 45v88h82v-88
q66 -11 106.5 -53t42.5 -108h-86q0 41 -27.5 65t-73.5 24q-40 0 -68 -17t-28 -51q0 -27 27.5 -44t100.5 -41q61 -20 94.5 -37.5z" />
    <glyph glyph-name="Euro.osf" horiz-adv-x="688" 
d="M479 94.5q40 29.5 59 78.5h90q-24 -81 -89.5 -133t-148.5 -52q-82 0 -145 46t-90 122h-95v70h81q-1 8 -1 24t1 24h-81v71h97q27 74 91 120.5t142 46.5q82 0 148 -52t90 -133h-90q-20 49 -59.5 78.5t-88.5 29.5q-44 0 -81.5 -24.5t-59.5 -65.5h157v-71h-179q-1 -8 -1 -24
t1 -24h179v-70h-157q21 -41 59 -66t82 -25q49 0 89 29.5z" />
    <glyph glyph-name="sterling.osf" horiz-adv-x="562" 
d="M186 71h306v-71h-422v71q42 25 57 42.5t15 49.5q0 13 -2 35h-57v75h48q-3 24 -3 58q0 50 24.5 92.5t66 67t90.5 24.5q48 0 89 -22t66 -58.5t28 -76.5h-80q-4 30 -33.5 55t-69.5 25q-43 0 -73.5 -31.5t-30.5 -75.5q0 -31 3 -58h165v-75h-155q3 -22 3 -43q0 -45 -35 -84z
" />
    <glyph glyph-name="yen.osf" horiz-adv-x="596" 
d="M390 232h149v-63h-176l-27 -60v-109h-82v109l-26 60h-171v63h143l-23 53h-120v63h92l-67 152h73l136 -302q2 -3 5 -3t4 3l135 302h74l-67 -152h97v-63h-125z" />
    <glyph glyph-name="at.case" horiz-adv-x="976" 
d="M267.5 1q-100.5 59 -159 159.5t-58.5 219.5t59 219.5t159.5 159.5t219.5 59q120 0 220.5 -59t159 -159.5t58.5 -219.5q0 -71 -25.5 -136t-71.5 -105t-103 -40q-51 0 -81 22t-41 77q-2 12 -9 12q-4 0 -17 -11q-26 -20 -55.5 -34t-70.5 -14q-48 0 -88.5 22t-64.5 59.5
t-24 80.5q0 39 22.5 76t60.5 58q-17 32 -17 60q0 51 44.5 84.5t114.5 33.5q77 0 125.5 -39.5t48.5 -130.5v-218q0 -37 17.5 -51.5t41.5 -14.5q36 0 63 31.5t41.5 80t14.5 97.5q0 100 -49.5 184t-133 133t-181.5 49t-180.5 -49t-131 -133t-48.5 -184t48.5 -184t131 -133.5
t180.5 -49.5q55 0 122 19l24 -67q-70 -23 -148 -23q-118 0 -218.5 59zM569 537.5q-30 24.5 -73 24.5q-41 0 -61.5 -17.5t-20.5 -41.5q0 -18 11 -32h174q0 42 -30 66.5zM563 248.5q36 26.5 36 64.5v87h-139q-51 0 -80.5 -25t-29.5 -62q0 -38 36.5 -64.5t89.5 -26.5
q51 0 87 26.5z" />
    <glyph glyph-name="bar.case" horiz-adv-x="257" 
d="M167 883v-1033h-77v1033h77z" />
    <glyph glyph-name="brokenbar.case" horiz-adv-x="257" 
d="M167 883v-423h-77v423h77zM167 273v-423h-77v423h77z" />
    <glyph glyph-name="ampersand.ss01" horiz-adv-x="821" 
d="M180.5 23q-60.5 35 -95.5 95t-35 131q0 72 36.5 134t97.5 90q7 4 7 10q0 4 -4 8q-23 21 -36 49t-13 59q0 47 23.5 86.5t63.5 62.5t88 23q47 0 87.5 -23t64 -62.5t23.5 -86.5q0 -70 -47 -115t-128 -51q-82 -6 -129.5 -57.5t-47.5 -126.5q0 -50 24 -92.5t64.5 -67.5
t88.5 -25q49 0 89.5 25t65 69.5t24.5 99.5h-179v73h441v-73h-179q0 -53 24.5 -96.5t65 -68t89.5 -24.5v-81q-68 0 -126.5 32t-93.5 86q-36 -54 -94.5 -86t-126.5 -32q-72 0 -132.5 35zM376.5 543q26.5 26 26.5 63t-26.5 63t-63.5 26q-38 0 -64 -26t-26 -63t26 -63t64 -26
q37 0 63.5 26z" />
    <glyph glyph-name="acute.comb" horiz-adv-x="600" 
d="M385 754l40 -69l-200 -117l-40 69z" />
    <glyph glyph-name="circumflex.comb" horiz-adv-x="600" 
d="M294 757l176 -117l-47 -62l-129 86l-127 -86l-47 62z" />
    <glyph glyph-name="dieresis.comb" horiz-adv-x="600" 
d="M135 609.5q-21 20.5 -21 50.5q0 29 21 49.5t50 20.5t50 -20.5t21 -49.5q0 -30 -21 -50.5t-50 -20.5t-50 20.5zM353 609.5q-21 20.5 -21 50.5q0 29 21 49.5t50 20.5t50 -20.5t21 -49.5q0 -30 -21 -50.5t-50 -20.5t-50 20.5z" />
    <glyph glyph-name="grave.comb" horiz-adv-x="600" 
d="M180 754l200 -117l-40 -69l-200 117z" />
    <glyph glyph-name="_a.print" horiz-adv-x="577" 
d="M151.5 10.5q-44.5 22.5 -70.5 63.5t-26 94q0 45 25.5 84.5t74.5 62.5q-23 35 -23 67q0 36 22.5 65t61.5 45.5t87 16.5q81 0 135 -44.5t54 -138.5v-326h-75v41v4q0 16 -9 14q-3 -1 -24 -20.5t-54 -35t-80 -15.5q-54 0 -98.5 22.5zM252 337h165q-1 49 -35 75t-82 26
q-45 0 -67.5 -19.5t-22.5 -47.5q0 -20 11 -36q9 2 31 2zM344.5 78q32.5 14 52.5 37.5t20 51.5v101h-141q-56 0 -96 -29.5t-40 -71.5q0 -46 38.5 -74.5t95.5 -28.5q38 0 70.5 14z" />
    <glyph glyph-name="_e.print" horiz-adv-x="609" 
d="M182.5 26q-56.5 35 -89.5 95t-33 130t33 130t89.5 95t122.5 35q59 0 110 -28.5t85.5 -78.5t43.5 -111q2 -14 2 -20h-399q-2 -16 -2 -24q0 -50 21.5 -91.5t59 -65.5t84.5 -24q54 0 97 35.5t58 96.5h84q-12 -59 -47.5 -106.5t-87 -75t-109.5 -27.5q-66 0 -122.5 35z
M438 344q3 4 -1 10q-23 37 -56.5 58.5t-75.5 21.5q-43 0 -80 -25.5t-58 -68.5h262q6 0 9 4z" />
    <glyph glyph-name="_ae.print" horiz-adv-x="964" 
d="M163.5 13.5q-50.5 23.5 -79.5 64.5t-29 90q0 42 26 83.5t68 65.5q-19 34 -19 66q0 36 22.5 65t62.5 45.5t90 16.5q60 0 104.5 -23.5t66.5 -68.5q35 43 83 67.5t102 24.5q59 0 110.5 -29.5t86 -79.5t44.5 -110l2 -20h-405q-1 -6 -1 -18q0 -48 21.5 -91t59 -68.5
t82.5 -25.5q59 0 101.5 36t57.5 95h83q-11 -59 -46 -106.5t-86.5 -74.5t-109.5 -27q-63 0 -114.5 28.5t-84.5 78.5q-25 -50 -73 -79t-113 -29q-62 0 -112.5 23.5zM251 340h163q0 47 -32.5 73.5t-79.5 26.5q-46 0 -68.5 -18.5t-22.5 -45.5q0 -22 11 -38q18 2 29 2z
M793.5 343.5q2.5 3.5 -1.5 10.5q-22 37 -56.5 58.5t-74.5 21.5q-43 0 -80.5 -25.5t-59.5 -68.5h263q7 0 9.5 3.5zM381 112q33 42 33 114v45h-137q-37 0 -68 -14t-49.5 -38t-18.5 -53q0 -41 39.5 -68.5t96.5 -27.5q71 0 104 42z" />
    </font>
</defs>
</svg>
